<svg xmlns="http://www.w3.org/2000/svg" viewBox="0 0 192 192" width="192" height="192">
  <!-- Google Business Profile Icon -->
  <!-- Building -->
  <path d="M32 88v72a8 8 0 0 0 8 8h112a8 8 0 0 0 8-8V88" fill="#E8F0FE"/>
  <path d="M32 88v72a8 8 0 0 0 8 8h112a8 8 0 0 0 8-8V88" fill="none" stroke="#4285F4" stroke-width="4"/>
  <!-- Door -->
  <rect x="76" y="120" width="40" height="48" rx="4" fill="#4285F4"/>
  <circle cx="108" cy="144" r="3" fill="white"/>
  <!-- Windows -->
  <rect x="44" y="108" width="24" height="24" rx="3" fill="#4285F4" opacity="0.25" stroke="#4285F4" stroke-width="2"/>
  <rect x="124" y="108" width="24" height="24" rx="3" fill="#4285F4" opacity="0.25" stroke="#4285F4" stroke-width="2"/>
  <!-- Roof base -->
  <rect x="24" y="32" width="144" height="12" rx="4" fill="#4285F4"/>
  <!-- Awning scallops (Google colors) -->
  <ellipse cx="48" cy="60" rx="24" ry="28" fill="#EA4335"/>
  <ellipse cx="48" cy="56" rx="24" ry="24" fill="#EA4335"/>
  <path d="M24 44h48v12c0 13.3-10.7 24-24 24S24 69.3 24 56V44z" fill="#EA4335"/>
  <path d="M72 44h48v12c0 13.3-10.7 24-24 24S72 69.3 72 56V44z" fill="#FBBC05"/>
  <path d="M120 44h48v12c0 13.3-10.7 24-24 24s-24-10.7-24-24V44z" fill="#34A853"/>
  <!-- Awning overlay for cleaner top edge -->
  <rect x="24" y="36" width="144" height="10" fill="#4285F4"/>
</svg>
