<?xml version="1.0" encoding="utf-8" standalone="yes"?>
<!DOCTYPE svg PUBLIC "-//W3C//DTD SVG 1.1//EN" "http://www.w3.org/Graphics/SVG/1.1/DTD/svg11.dtd">
<svg version="1.1" xmlns="http://www.w3.org/2000/svg" xmlns:xlink="http://www.w3.org/1999/xlink" width="672" height="489" viewBox="0 0 672 489" style="fill:none; stroke:none; fill-rule:evenodd; clip-rule:evenodd; stroke-linecap:round; stroke-linejoin:round; stroke-miterlimit:1.5;">
<style class="text-font-style fontImports" data-font-family="Roboto">
@import url(https://fonts.googleapis.com/css2?family=Roboto:wght@400;700&amp;display=block);
</style>
<style class="text-font-style">
@import url(https://app.napkin.ai/fonts/font-face.web.napkin-fallback.css);
@import url(https://app.napkin.ai/fonts/font-face.web.shantell-sans.css);
@import url(https://app.napkin.ai/fonts/font-face.web.roboto.css);
</style>
<rect id="" x="0" y="0" width="672" height="488.423" style="fill:#ffffff;"></rect>
<g id="items" style="isolation:isolate;">
<g id="blend" style="mix-blend-mode:normal;">
<g id="g-root-tf_vbqk5gploz5x-fill" data-item-order="-492330">
<g id="tf_vbqk5gploz5x-fill-merged" stroke="none" fill="#ffffff" fill-opacity="1.0">
<g>
<path d="M0 0 H672 V488.42 H0 V0"></path>
</g>
</g>
</g>
<g id="g-root-tf_vbqk5gploz5x-stroke" data-item-order="-492330"></g>
<g id="g-root-sy_4_cu_8dk78plp0ch-fill" data-item-order="-181760" transform="translate(316.2950439453125, 284.9498291015625)">
<g id="sy_4_cu_8dk78plp0ch-fill-merged" stroke="none" fill="url(#gradient-fcaa5f-284141256)" fill-opacity="1.0">
<g>
<path d="M19.734 113.341 H26.233 V39.858 H19.734 V113.341 M10 16.464 H35.986 V10 H10 V16.464"></path>
</g>
</g>
</g>
<g id="g-root-sy_4_cu_8dk78plp0ch-stroke" data-item-order="-181760" transform="translate(316.2950439453125, 284.9498291015625)">
<g id="sy_4_cu_8dk78plp0ch-stroke" fill="none" stroke-linecap="round" stroke-linejoin="round" stroke-miterlimit="4" stroke="#484848" stroke-width="2" stroke-opacity="1.0">
<g>
<path d="M 19.734436 113.341388L 26.232536 113.341388L 26.232536 39.857788L 19.734436 39.857788L 19.734436 113.341388ZM 10 16.464385L 35.9858 16.464385L 35.9858 9.999985L 10 9.999985L 10 16.464385Z"></path>
</g>
</g>
</g>
<g id="g-root-sy_3_cu_dju2kkplp0qx-fill" data-item-order="-181756" transform="translate(309.04132080078125, 284.0)">
<defs>
<linearGradient id="gradient-fcaa5f-284141256" x2="0" y2="1">
<stop offset="0" stop-color="#ffbf84"></stop>
<stop offset="1" stop-color="#f99539"></stop>
</linearGradient>
<linearGradient id="gradient-b6b6b6-242349474" x2="0" y2="1">
<stop offset="0" stop-color="#c8c8c8"></stop>
<stop offset="1" stop-color="#a3a3a3"></stop>
</linearGradient>
</defs>
<g id="sy_3_cu_dju2kkplp0qx-fill-merged" stroke="none" fill="url(#gradient-b6b6b6-242349474)" fill-opacity="1.0">
<g>
<path d="M26.988 40.808 H33.486 V32.473 H26.988 V40.808 M30.239 114.291C35.973 114.283 41.707 115.2 47.23 117.044L49.108 117.677C49.908 117.948 50.453 118.71 50.453 119.588 V137.158C50.479 142.464 49.121 146.492 46.794 150.971L46.112 152.167C46.112 152.167 45.493 152.254 45.035 152.348C42.667 152.721 40.284 153.06 38.576 153.159C37.014 153.249 34.582 152.967 32.811 152.892C31.655 152.843 30.804 152.985 29.75 152.759C28.697 152.533 27.612 152.28 26.812 152.257C25.479 152.22 23.602 152.412 21.866 152.625C19.167 152.957 17.137 153.271 14.823 153.169L13.685 150.971C11.358 146.492 10 142.464 10 137.158 V119.588C10.025 118.71 10.571 117.948 11.371 117.677L13.249 117.044C18.771 115.2 24.506 114.283 30.239 114.291"></path>
</g>
</g>
</g>
<g id="g-root-sy_3_cu_dju2kkplp0qx-stroke" data-item-order="-181756" transform="translate(309.04132080078125, 284.0)">
<g id="sy_3_cu_dju2kkplp0qx-stroke" fill="none" stroke-linecap="round" stroke-linejoin="round" stroke-miterlimit="4" stroke="#484848" stroke-width="2" stroke-opacity="1.0">
<g>
<path d="M 26.988098 40.807707L 33.486198 40.807707L 33.486198 32.473007L 26.988098 32.473007L 26.988098 40.807707ZM 17.234558 10L 17.235558 19.7576C 17.478758 26.8199 23.184958 32.473 30.236658 32.473C 37.288358 32.473 43.010658 26.8199 43.237658 19.7576L 43.236658 10L 43.220358 10M 30.2394 114.291421C 35.9727 114.283321 41.7073 115.199921 47.2297 117.044421L 49.1081 117.677021C 49.9077 117.948121 50.4535 118.709821 50.4535 119.587621L 50.4788 137.157921C 50.4788 142.463921 49.1214 146.492221 46.7942 150.971021L 46.1122 152.166721C 46.1122 152.166721 45.4925 152.254121 45.035 152.348021C 42.667 152.721321 40.2842 153.059621 38.5765 153.158721C 37.0139 153.249321 34.582 152.966721 32.8114 152.892021C 31.6551 152.843221 30.8039 152.984521 29.7502 152.758721C 28.6965 152.532921 27.6121 152.280121 26.8117 152.257421C 25.4787 152.219521 23.6022 152.412321 21.8658 152.625321C 19.1666 152.956521 17.1374 153.270721 14.8228 153.169321L 13.6847 150.971021C 11.3575 146.492221 10 142.463921 10 137.157921L 10.0254 119.587621C 10.0254 118.709821 10.5711 117.948121 11.3707 117.677021L 13.2491 117.044421C 18.7715 115.199921 24.5062 114.283321 30.2394 114.291421ZM 30.2394 114.291421L 30.2425 114.291421L 30.2363 114.291421L 30.2394 114.291421ZM 34.267988 114.557286L 34.267988 135.441686C 34.267988 137.623186 32.513588 139.396486 30.355288 139.396486C 28.197088 139.396486 26.442688 137.623186 26.442688 135.441686L 26.442688 114.557286M 34.267988 114.557286C 29.903688 114.264086 27.232688 114.435086 26.442688 114.557286"></path>
</g>
</g>
</g>
<g id="g-root-sy_2_cu_146r3b8plp1c0-fill" data-item-order="-181751" transform="translate(30.630859375, 169.97256469726562)"></g>
<g id="g-root-sy_2_cu_146r3b8plp1c0-stroke" data-item-order="-181751" transform="translate(30.630859375, 169.97256469726562)">
<g id="sy_2_cu_146r3b8plp1c0-stroke" fill="none" stroke-linecap="round" stroke-linejoin="round" stroke-miterlimit="4" stroke="#484848" stroke-width="2" stroke-opacity="1.0">
<g>
<path d="M 164.329785 14.041438L 166.559785 29.711438C 167.009785 32.901438 166.449785 36.141438 164.959785 38.991438C 163.439785 41.891438 163.019785 45.251438 163.799785 48.441438L 163.969785 49.141438C 164.559785 51.571438 164.719785 54.071438 164.539785 56.571438C 164.399785 58.521438 164.339785 60.481438 164.359785 62.431438C 164.389785 64.881438 164.439785 67.301438 164.509785 69.711438C 164.569785 71.661438 164.639785 73.591438 164.719785 75.521438C 164.949785 80.811438 167.009785 82.471438 167.479785 87.551438C 167.949785 92.631438 165.699785 91.271438 166.189785 96.021438C 166.919785 103.171438 167.519785 103.801438 170.149785 112.381438C 171.989785 118.381438 169.949785 122.931438 170.519785 125.911438C 171.359785 130.251438 170.989785 136.851438 171.989785 141.001438C 172.859785 144.611438 175.079785 145.801438 176.069785 149.281438C 176.869785 152.091438 180.169785 156.321438 181.039785 159.041438C 182.779785 164.451438 182.199785 168.221438 184.219785 173.251438C 185.199785 175.701438 186.219785 178.101438 187.259785 180.461438C 188.539785 183.361438 189.879785 186.181438 191.249785 188.941438C 191.979785 190.401438 192.719785 191.841438 193.479785 193.261438C 195.789785 197.611438 199.619785 198.201438 202.149785 202.191438C 203.079785 203.651438 202.629785 208.671438 203.589785 210.091438C 206.279785 214.051438 209.089785 217.821438 211.999785 221.381438C 213.439785 223.141438 217.549785 223.761438 219.039785 225.431438C 222.059785 228.811438 220.699785 233.441438 223.929785 236.421438C 225.949785 238.281438 229.849785 239.721438 231.949785 241.421438C 234.439785 243.451438 237.349785 243.721438 239.929785 245.521438C 242.369785 247.221438 244.489785 250.471438 247.019785 251.961438C 248.659785 252.931438 251.819785 255.941438 253.489785 256.821438C 257.029785 258.691438 259.129785 258.281438 262.809785 259.751438C 265.709785 260.911438 268.069785 259.861438 271.049785 260.781438C 272.839785 261.331438 275.209785 263.921438 277.019785 264.381438C 281.939785 265.631438 286.959785 266.541438 292.049785 267.111438C 296.329785 267.591438 300.659785 266.281438 305.039785 266.281438C 306.619785 266.281438 308.189785 266.991438 309.759785 266.921438C 312.509785 266.811438 315.239785 267.421438 317.949785 267.121438C 321.389785 266.741438 324.789785 266.201438 328.149785 265.511438C 331.509785 264.821438 335.069785 263.911438 338.469785 262.871438C 340.539785 262.231438 342.589785 261.541438 344.619785 260.781438C 347.339785 259.771438 348.389785 257.601438 351.039785 256.371438C 355.779785 254.181438 362.589785 254.351438 367.069785 251.481438C 368.969785 250.271438 370.279785 247.351438 372.129785 246.021438C 376.029785 243.211438 380.709785 241.481438 384.379785 238.151438C 388.049785 234.821438 390.589785 230.001438 393.959785 226.221438C 396.089785 223.831438 396.689785 216.491438 398.719785 213.901438C 401.909785 209.811438 406.439785 210.321438 409.359785 205.741438C 411.409785 202.531438 414.489785 201.441438 416.389785 197.991438C 418.289785 194.541438 418.929785 188.851438 420.639785 185.231438C 421.499785 183.411438 424.989785 181.361438 425.809785 179.481438C 428.009785 174.461438 427.429785 169.451438 429.339785 164.031438C 430.499785 160.731438 433.999785 158.861438 435.049785 155.411438C 436.459785 150.781438 435.369785 144.501438 436.569785 139.601438C 437.349785 136.391438 436.599785 132.431438 437.289785 129.121438C 438.029785 125.561438 441.759785 122.841438 442.389785 119.151438C 443.249785 114.121438 442.439785 108.761438 443.079785 103.491438C 443.479785 100.171438 441.739785 96.791438 442.059785 93.381438C 442.589785 87.641438 447.119785 84.811438 447.389785 78.811438C 447.529785 75.641438 445.599785 69.371438 445.669785 66.131438C 445.679785 65.511438 445.599785 64.931438 445.459785 64.361438C 444.289785 59.541438 444.459785 54.481438 445.459785 49.621438L 445.759785 48.151438L 447.389785 33.481438L 445.759785 21.441438L 445.759785 14.021438M 100.17 20.150015L 100.17 20.190015M 140.1992 64.990015L 140.2292 64.990015M 148.25 36.750015L 148.28 36.750015M 129.8203 16.250015L 129.8503 16.250015M 10 20.180015L 10.04 20.180015M 148.4609 86.200015L 148.4909 86.200015M 148.25 106.560015L 148.28 106.560015M 150 139.850015L 150.04 139.850015M 161 120.610015L 161.03 120.610015M 156.5605 54.429915L 156.5905 54.429915M 150.0195 18.950015L 150.0495 18.950015M 216.03 235.810015L 216 235.830015M 176.03 224.280015L 176 224.300015M 187.5105 204.590015L 187.4805 204.610015M 176.0105 187.780015L 175.9805 187.800015M 143.2097 167.560015L 143.1797 167.580015M 161.0495 155.309915L 161.0195 155.329915M 157.5105 183.570015L 157.4805 183.590015M 199.0691 235.260015L 199.0391 235.280015M 220.3991 254.130015L 220.3691 254.150015M 247.0593 265.120015L 247.0293 265.140015M 272.45 270.430015L 272.42 270.450015M 80.9004 10.030015L 80.9004 10.000015M 52.66 18.980015L 52.66 18.950015M 29.0391 10.449915L 29.0391 10.419915M 517.1309 20.180015L 517.1309 20.140015M 465.0703 73.990015L 465.1003 73.990015M 469.0195 36.750015L 469.0495 36.750015M 487.4492 16.250015L 487.4792 16.250015M 607.2598 20.179915L 607.2997 20.179915M 451.8008 86.200015L 451.8308 86.200015M 469.0195 106.559915L 469.0495 106.559915M 451.2695 139.850015L 451.3095 139.850015M 456.2598 120.610015L 456.2898 120.610015M 455.7109 54.429915L 455.7409 54.429915M 460.25 18.950015L 460.28 18.950015M 401.2995 235.830015L 401.2695 235.810015M 441.2995 224.300015L 441.2695 224.280015M 429.8191 204.610015L 429.7891 204.590015M 441.3093 187.800015L 441.2793 187.780015M 453.12 167.580015L 453.09 167.560015M 464.28 155.330015L 464.25 155.310015M 459.8191 183.590015L 459.7891 183.570015M 418.2605 235.280015L 418.2305 235.260015M 396.9304 254.150015L 396.9004 254.130015M 370.2605 265.140015L 370.2305 265.120015M 344.87 270.450015L 344.84 270.430015M 536.4004 12.000015L 536.4004 12.030015M 564.6406 18.950015L 564.6406 18.979915M 588.2598 12.410015L 588.2598 12.440015M 501.5904 27.760015L 501.5904 27.720015M 545.5905 27.720015L 545.5905 27.680015M 581.0905 27.720015L 581.0905 27.680015M 119.0904 28.680015L 119.0904 28.720015M 70.0904 27.680015L 70.0904 27.720015M 38.0904 28.640015L 38.0904 28.680015"></path>
</g>
</g>
</g>
<g id="g-root-sy_1_Vector_hznkp0plp1j5-fill" data-item-order="-181747" transform="translate(14.0, 139.1240234375)"></g>
<g id="g-root-sy_1_Vector_hznkp0plp1j5-stroke" data-item-order="-181747" transform="translate(14.0, 139.1240234375)">
<g id="sy_1_Vector_hznkp0plp1j5-stroke" fill="none" stroke-linecap="round" stroke-linejoin="round" stroke-miterlimit="4" stroke="#484848" stroke-width="2" stroke-opacity="1.0">
<g>
<path d="M 546.9191 34.88C 546.9191 34.88 547.6693 28.89 540.1093 27.78C 547.9993 24.53 550.7794 29.56 550.7794 29.56C 550.7794 29.56 549.8393 14.7 560.9993 10C 557.8293 13.77 557.0793 20.52 558.9393 26C 563.3793 22.89 569.2693 23.56 571.2693 26.67C 567.0493 24.44 560.2993 28.43 561.4093 34.88M 180.96 34.88C 180.96 34.88 191.8909 34.88 196.0009 41.11C 188.4809 39.44 186.0009 41.11 186.0009 41.11C 186.0009 41.11 188.0009 44.78 186.6709 49C 183.3009 44.51 180.9609 44.89 180.9609 44.89M 462.37 44.89C 456.74 44.56 453.94 46.56 451.33 52.31C 449.66 44.39 456.33 40.23 456.33 40.23C 456.33 40.23 450 38.44 444 42.03C 447.78 34.89 455.78 34.89 462.37 34.89M 634 34.88L 561.4199 34.88L 561.4093 34.88M 546.9191 34.88L 462.3691 34.88L 462.37 34.89M 10 34.88L 180.96 34.88"></path>
</g>
</g>
</g>
<g id="g-root-tx_incorrec_1uto41wplp1jg-fill" data-item-order="0" transform="translate(73.46875, 38.0)">
<g id="tx_incorrec_1uto41wplp1jg-fill-merged" stroke="none" fill="#484848" fill-opacity="1.0">
<g>
<text transform="translate(260.53125, 10.0)" style="font-size:25px; font-family:'Roboto', napkin-fallback, sans-serif; font-weight:bold; white-space:pre;">
<tspan x="-248.53" y="30" dominant-baseline="ideographic">Incorrect call handling leads to lost business</tspan>
</text>
</g>
</g>
</g>
<g id="g-root-tx_incorrec_1uto41wplp1jg-stroke" data-item-order="0" transform="translate(73.46875, 38.0)"></g>
</g>
</g>
<path id="w1hf3890plw00b" d="M65.283 12.757a.35.35 0 0 0 .584.157l5.203-5.141-6.183 3.523.396 1.461zm-2.216-11.7a.35.35 0 0 0-.522.305v3.111l3.276-1.868-2.754-1.548zm3.728 2.105l-4.25 2.421v2.445l6.391-3.644-2.141-1.222zm4.708 3.303a.35.35 0 0 0 0-.609l-1.592-.9-7.365 4.199v1.782a.35.35 0 0 0 .523.305l8.435-4.777z M44.542 2.513c0-.433.355-.783.792-.783s.792.35.792.783-.355.783-.792.783-.792-.35-.792-.783zm59.171 0c0-.433.355-.783.792-.783s.792.35.792.783-.355.783-.792.783-.792-.35-.792-.783zm-85.951 7.636h-1.27v-.487c-.276.201-.864.609-1.881.609-1.202 0-2.274-.794-2.137-2.078.118-1.106 1.153-1.584 1.848-1.727l2.17-.345c0-.539-.29-.956-1.064-1.006s-1.21.305-1.571 1.017l-1.124-.605c1.218-2.631 5.029-1.764 5.029.414v4.207zm-1.27-2.86c.006.396-.062 1.112-.819 1.59-.587.37-1.841.299-1.903-.395-.049-.555.461-.791.906-.898l1.816-.297zm72.662 2.86h-1.27v-.487c-.276.201-.864.609-1.881.609-1.202 0-2.274-.794-2.137-2.078.118-1.106 1.153-1.584 1.848-1.727l2.17-.345c0-.539-.29-.956-1.064-1.006s-1.21.305-1.571 1.017l-1.124-.605c1.218-2.631 5.029-1.764 5.029.414v4.207zm-1.27-2.86c.006.396-.062 1.112-.82 1.59-.587.37-1.841.299-1.903-.395-.049-.555.461-.791.906-.898l1.816-.297zM99.096 10.149H97.85v-8.45h1.246v4.895l2.68-2.559h1.738l-2.633 2.535 2.715 3.578h-1.556l-2.077-2.707-.867.844v1.863zm6.053-6.114h-1.255v6.113h1.255V4.035zm-59.2 0h-1.255v6.113h1.255V4.035zm5.584 6.113V1.697h1.255v2.695c.361-.346 1-.485 1.47-.485 1.452 0 2.477 1.082 2.457 2.448v3.792h-1.27v-3.68c0-.408-.214-1.339-1.315-1.339-.968 0-1.342.756-1.342 1.339v3.681h-1.255zm-4.76-4.894V4.039h.621a.45.45 0 0 0 .45-.45v-.855h1.251v1.305h1.309v1.215h-1.309v3.109c0 .293.105.664.648.664.365 0 .531-.035.736-.07v1.137s-.361.113-.857.113c-1.398 0-1.777-1.051-1.777-1.788V5.254h-1.071zM36.528 4.039h-1.394l2.191 6.106h1.125l1.234-3.918 1.238 3.918h1.129l2.188-6.106h-1.383l-1.359 3.93-1.256-3.93h-1.124l-1.242 3.957-1.348-3.957zM26.212 7.141c-.02 1.566 1.187 3.129 3.223 3.129 1.566 0 2.383-.918 2.734-1.719L31.172 8c-.315.399-.801 1.094-1.738 1.094-1.145 0-1.825-.781-1.891-1.52h4.625c.074-.284.148-.995-.03-1.559-.336-1.064-1.221-2.102-2.839-2.102s-3.088 1.152-3.088 3.227zm1.363-.75h3.348c-.055-.43-.566-1.301-1.623-1.301a1.79 1.79 0 0 0-1.725 1.301zm-8.758.75c.038 1.758 1.277 3.133 3.145 3.133 1.074 0 1.723-.477 1.961-.672v.547h1.242V1.703h-1.258v2.888c-.414-.36-1.062-.68-1.93-.68-1.91 0-3.198 1.473-3.16 3.23zm1.309-.08c0 1.119.723 1.978 1.836 1.978a1.88 1.88 0 0 0 1.94-1.904c0-1.371-1.011-1.99-1.972-1.99s-1.805.798-1.805 1.916zm76.683-.028C96.771 5.275 95.532 3.9 93.664 3.9c-1.074 0-1.723.477-1.961.672v-.547h-1.242v8.22h1.258V9.583c.414.36 1.063.68 1.93.68 1.91 0 3.198-1.473 3.16-3.23zm-1.309.08c0-1.119-.723-1.978-1.836-1.978a1.88 1.88 0 0 0-1.94 1.904c0 1.371 1.011 1.99 1.972 1.99S95.5 8.231 95.5 7.113zM106.441 10.173V4.036h1.254v.382c.361-.346 1-.485 1.47-.485 1.452 0 2.477 1.082 2.457 2.448v3.792h-1.27V6.492c0-.408-.214-1.339-1.315-1.339-.969 0-1.342.756-1.342 1.339v3.681h-1.254zm-30.383-.021V1.824h1.084l4.215 5.777V1.824h1.32v8.328h-1.094l-4.207-5.796v5.796h-1.319zM5.24 10.149H4V2.377h1.014l2.664 3.597 2.654-3.592h1.03v7.766h-1.256V4.762L7.678 8.068 5.24 4.742v5.407z" transform="translate(539.0, 457.4225769042969)" fill="#80808088" stroke="none"></path>
</svg>