<?xml version="1.0" encoding="utf-8" standalone="yes"?>
<!DOCTYPE svg PUBLIC "-//W3C//DTD SVG 1.1//EN" "http://www.w3.org/Graphics/SVG/1.1/DTD/svg11.dtd">
<svg version="1.1" xmlns="http://www.w3.org/2000/svg" xmlns:xlink="http://www.w3.org/1999/xlink" width="786" height="732" viewBox="0 0 786 732" style="fill:none; stroke:none; fill-rule:evenodd; clip-rule:evenodd; stroke-linecap:round; stroke-linejoin:round; stroke-miterlimit:1.5;">
<style class="text-font-style fontImports" data-font-family="Roboto">
@import url(https://fonts.googleapis.com/css2?family=Roboto:wght@400;700&amp;display=block);
</style>
<style class="text-font-style">
@import url(https://app.napkin.ai/fonts/font-face.web.napkin-fallback.css);
@import url(https://app.napkin.ai/fonts/font-face.web.shantell-sans.css);
@import url(https://app.napkin.ai/fonts/font-face.web.roboto.css);
</style>
<rect id="" x="0" y="0" width="786" height="732" style="fill:#ffffff;"></rect>
<g id="items" style="isolation:isolate;">
<g id="blend" style="mix-blend-mode:normal;">
<g id="g-root-tf_dkg3uspvvmkl-fill" data-item-order="-863028">
<g id="tf_dkg3uspvvmkl-fill-merged" stroke="none" fill="#ffffff" fill-opacity="1.0">
<g>
<path d="M0 0 H786 V732 H0 V0"></path>
</g>
</g>
</g>
<g id="g-root-tf_dkg3uspvvmkl-stroke" data-item-order="-863028"></g>
<g id="g-root-cp_1_common_1-1_1upwtqcpviyo3-fill" data-item-order="-511324" transform="translate(14.0, 224.0)">
<g id="cp_1_common_1-1_1upwtqcpviyo3-fill-merged" stroke="none" fill="url(#gradient-b6b6b6-242349474)" fill-opacity="1.0">
<g>
<path d="M 22 10L 14 10C 11.7909 10 10 11.7909 10 14L 22 14L 22 10ZM 94 14L 358 14C 358 11.7909 356.2092 10 354 10L 94 10L 94 14ZM 22 13.998062L 22 14.001724L 10 13.998062L 10 99.998047L 22 99.998047L 22 13.998062ZM 94 99.998047L 358 99.998047L 358 13.998062L 94 13.998062L 94 99.998047ZM 21.9998 100L 10 100L 10 108C 10 110.2091 11.7907 112 13.9998 112L 21.9998 112L 21.9998 100ZM 93.9998 112L 345.9998 112L 357.9998 100C 357.9998 100 348.209 100 345.9998 100L 93.9998 100L 93.9998 112ZM 345.9998 112L 345.9998 100L 357.9998 100L 345.9998 112ZM 345.9998 112L 357.9998 100L 345.9998 100L 345.9998 112Z"></path>
</g>
</g>
</g>
<g id="g-root-cp_1_common_1-1_1upwtqcpviyo3-stroke" data-item-order="-511324" transform="translate(14.0, 224.0)">
<g id="cp_1_common_1-1_1upwtqcpviyo3-stroke" fill="none" stroke-linecap="round" stroke-linejoin="round" stroke-miterlimit="4" stroke="#484848" stroke-width="2" stroke-opacity="1.0">
<g>
<path d="M 22 10L 14 10C 11.7909 10 10 11.7909 10 14M 358 14C 358 11.7909 356.2091 10 354 10L 94 10M 358 14L 358 100M 10 100L 10 14M 346 112L 358 100L 346 100L 346 112ZM 21 112L 14 112C 11.7909 112 10 110.2091 10 108L 10 100M 346 112L 94 112"></path>
</g>
</g>
</g>
<g id="g-root-cp_1-1_g-1-1_lines_v7csqspviz9j-fill" data-item-order="-511310" transform="translate(26.0, 212.0)">
<g id="cp_1-1_g-1-1_lines_v7csqspviz9j-fill-merged" stroke="none" fill="url(#gradient-fe8884-345532732)" fill-opacity="1.0">
<g>
<path d="M82 132C82 134.209 80.209 136 78 136 H14C11.791 136 10 134.209 10 132 V20C10 14.477 14.477 10 20 10 H96C101.523 10 106 14.477 106 20 V21 H82 V132"></path>
</g>
</g>
</g>
<g id="g-root-cp_1-1_g-1-1_lines_v7csqspviz9j-stroke" data-item-order="-511310" transform="translate(26.0, 212.0)">
<g id="cp_1-1_g-1-1_lines_v7csqspviz9j-stroke" fill="none" stroke-linecap="round" stroke-linejoin="round" stroke-miterlimit="4" stroke="#484848" stroke-width="2" stroke-opacity="1.0">
<g>
<path d="M 92 10L 20 10C 14.4772 10 10 14.4772 10 20L 10 22M 92 10C 86.4772 10 82 14.4772 82 20L 82 22M 92 10L 96 10C 101.5229 10 106 14.4772 106 20L 106 21M 82 132.007751L 82 22.007767M 10 22.007889L 10 132.007751M 82 132C 82 134.2091 80.2091 136 78 136L 14 136C 11.7909 136 10 134.2091 10 132"></path>
</g>
</g>
</g>
<g id="g-root-cp_1_common_2-1_zn6av8pvizuz-fill" data-item-order="-511282" transform="translate(14.0, 374.0)">
<g id="cp_1_common_2-1_zn6av8pvizuz-fill-merged" stroke="none" fill="url(#gradient-b6b6b6-242349474)" fill-opacity="1.0">
<g>
<path d="M 22 10L 14 10C 11.7909 10 10 11.7909 10 14L 22 14L 22 10ZM 94 14L 358 14C 358 11.7909 356.2092 10 354 10L 94 10L 94 14ZM 22 13.998016L 22 14.000671L 10 13.998016L 10 75.998016L 22 75.998016L 22 13.998016ZM 94 75.998016L 358 75.998016L 358 13.998016L 94 13.998016L 94 75.998016ZM 21.9998 76L 10 76L 10 84C 10 86.2091 11.7907 88 13.9998 88L 21.9998 88L 21.9998 76ZM 93.9998 88L 345.9998 88L 357.9998 76C 357.9998 76 348.209 76 345.9998 76L 93.9998 76L 93.9998 88ZM 345.9998 88L 345.9998 76L 357.9998 76L 345.9998 88ZM 345.9998 88L 357.9998 76L 345.9998 76L 345.9998 88Z"></path>
</g>
</g>
</g>
<g id="g-root-cp_1_common_2-1_zn6av8pvizuz-stroke" data-item-order="-511282" transform="translate(14.0, 374.0)">
<g id="cp_1_common_2-1_zn6av8pvizuz-stroke" fill="none" stroke-linecap="round" stroke-linejoin="round" stroke-miterlimit="4" stroke="#484848" stroke-width="2" stroke-opacity="1.0">
<g>
<path d="M 22 10L 14 10C 11.7909 10 10 11.7909 10 14M 358 14C 358 11.7909 356.2091 10 354 10L 94 10M 358 14L 358 76M 10 76L 10 14M 346 88L 358 76L 346 76L 346 88ZM 21 88L 14 88C 11.7909 88 10 86.2091 10 84L 10 76M 346 88L 94 88"></path>
</g>
</g>
</g>
<g id="g-root-cp_2-1_g-2-1_lines_1qa3blwpvj092-fill" data-item-order="-511268" transform="translate(26.0, 362.0)">
<g id="cp_2-1_g-2-1_lines_1qa3blwpvj092-fill-merged" stroke="none" fill="url(#gradient-fe8884-345532732)" fill-opacity="1.0">
<g>
<path d="M82 108C82 110.209 80.209 112 78 112 H14C11.791 112 10 110.209 10 108 V20C10 14.477 14.477 10 20 10 H96C101.523 10 106 14.477 106 20 V21 H82 V108"></path>
</g>
</g>
</g>
<g id="g-root-cp_2-1_g-2-1_lines_1qa3blwpvj092-stroke" data-item-order="-511268" transform="translate(26.0, 362.0)">
<g id="cp_2-1_g-2-1_lines_1qa3blwpvj092-stroke" fill="none" stroke-linecap="round" stroke-linejoin="round" stroke-miterlimit="4" stroke="#484848" stroke-width="2" stroke-opacity="1.0">
<g>
<path d="M 92 10L 20 10C 14.4772 10 10 14.4772 10 20L 10 22M 92 10C 86.4772 10 82 14.4772 82 20L 82 22M 92 10L 96 10C 101.5229 10 106 14.4772 106 20L 106 21M 82 108.007813L 82 22.007813M 10 22.007904L 10 108.007813M 82 108C 82 110.2091 80.2091 112 78 112L 14 112C 11.7909 112 10 110.2091 10 108"></path>
</g>
</g>
</g>
<g id="g-root-cp_1_common_3-1_1cymt8kpvj0u9-fill" data-item-order="-511242" transform="translate(14.0, 500.0)">
<g id="cp_1_common_3-1_1cymt8kpvj0u9-fill-merged" stroke="none" fill="url(#gradient-b6b6b6-242349474)" fill-opacity="1.0">
<g>
<path d="M 22 10L 14 10C 11.7909 10 10 11.7909 10 14L 22 14L 22 10ZM 94 14L 358 14C 358 11.7909 356.2092 10 354 10L 94 10L 94 14ZM 22 13.998016L 22 14.000671L 10 13.998016L 10 75.998047L 22 75.998047L 22 13.998016ZM 94 75.998047L 358 75.998047L 358 13.998016L 94 13.998016L 94 75.998047ZM 21.9998 76L 10 76L 10 84C 10 86.2091 11.7907 88 13.9998 88L 21.9998 88L 21.9998 76ZM 93.9998 88L 345.9998 88L 357.9998 76C 357.9998 76 348.209 76 345.9998 76L 93.9998 76L 93.9998 88ZM 345.9998 88L 345.9998 76L 357.9998 76L 345.9998 88ZM 345.9998 88L 357.9998 76L 345.9998 76L 345.9998 88Z"></path>
</g>
</g>
</g>
<g id="g-root-cp_1_common_3-1_1cymt8kpvj0u9-stroke" data-item-order="-511242" transform="translate(14.0, 500.0)">
<g id="cp_1_common_3-1_1cymt8kpvj0u9-stroke" fill="none" stroke-linecap="round" stroke-linejoin="round" stroke-miterlimit="4" stroke="#484848" stroke-width="2" stroke-opacity="1.0">
<g>
<path d="M 22 10L 14 10C 11.7909 10 10 11.7909 10 14M 358 14C 358 11.7909 356.2091 10 354 10L 94 10M 358 14L 358 76M 10 76L 10 14M 346 88L 358 76L 346 76L 346 88ZM 21 88L 14 88C 11.7909 88 10 86.2091 10 84L 10 76M 346 88L 94 88"></path>
</g>
</g>
</g>
<g id="g-root-cp_3-1_g-3-1_lines_1hf2sg4pviy2q-fill" data-item-order="-511228" transform="translate(26.0, 488.0)">
<g id="cp_3-1_g-3-1_lines_1hf2sg4pviy2q-fill-merged" stroke="none" fill="url(#gradient-fe8884-345532732)" fill-opacity="1.0">
<g>
<path d="M82 108C82 110.209 80.209 112 78 112 H14C11.791 112 10 110.209 10 108 V20C10 14.477 14.477 10 20 10 H96C101.523 10 106 14.477 106 20 V21 H82 V108"></path>
</g>
</g>
</g>
<g id="g-root-cp_3-1_g-3-1_lines_1hf2sg4pviy2q-stroke" data-item-order="-511228" transform="translate(26.0, 488.0)">
<g id="cp_3-1_g-3-1_lines_1hf2sg4pviy2q-stroke" fill="none" stroke-linecap="round" stroke-linejoin="round" stroke-miterlimit="4" stroke="#484848" stroke-width="2" stroke-opacity="1.0">
<g>
<path d="M 92 10L 20 10C 14.4772 10 10 14.4772 10 20L 10 22M 92 10C 86.4772 10 82 14.4772 82 20L 82 22M 92 10L 96 10C 101.5229 10 106 14.4772 106 20L 106 21M 82 108.007813L 82 22.007813M 10 22.007904L 10 108.007813M 82 108C 82 110.2091 80.2091 112 78 112L 14 112C 11.7909 112 10 110.2091 10 108"></path>
</g>
</g>
</g>
<g id="g-root-cp_2_common_1-2_1uqjatgpviyo2-fill" data-item-order="-511194" transform="translate(404.0, 224.0)">
<g id="cp_2_common_1-2_1uqjatgpviyo2-fill-merged" stroke="none" fill="url(#gradient-b6b6b6-242349474)" fill-opacity="1.0">
<g>
<path d="M 22 10L 14 10C 11.7909 10 10 11.7909 10 14L 22 14L 22 10ZM 94 14L 358 14C 358 11.7909 356.2092 10 354 10L 94 10L 94 14ZM 22 13.998062L 22 14.001724L 10 13.998062L 10 99.998047L 22 99.998047L 22 13.998062ZM 94 99.998047L 358 99.998047L 358 13.998062L 94 13.998062L 94 99.998047ZM 21.9998 100L 10 100L 10 108C 10 110.2091 11.7907 112 13.9998 112L 21.9998 112L 21.9998 100ZM 93.9998 112L 345.9998 112L 357.9998 100C 357.9998 100 348.209 100 345.9998 100L 93.9998 100L 93.9998 112ZM 345.9998 112L 345.9998 100L 357.9998 100L 345.9998 112ZM 345.9998 112L 357.9998 100L 345.9998 100L 345.9998 112Z"></path>
</g>
</g>
</g>
<g id="g-root-cp_2_common_1-2_1uqjatgpviyo2-stroke" data-item-order="-511194" transform="translate(404.0, 224.0)">
<g id="cp_2_common_1-2_1uqjatgpviyo2-stroke" fill="none" stroke-linecap="round" stroke-linejoin="round" stroke-miterlimit="4" stroke="#484848" stroke-width="2" stroke-opacity="1.0">
<g>
<path d="M 22 10L 14 10C 11.7909 10 10 11.7909 10 14M 358 14C 358 11.7909 356.2091 10 354 10L 94 10M 358 14L 358 100M 10 100L 10 14M 346 112L 358 100L 346 100L 346 112ZM 21 112L 14 112C 11.7909 112 10 110.2091 10 108L 10 100M 346 112L 94 112"></path>
</g>
</g>
</g>
<g id="g-root-cp_1-2_g-1-2_lines_dgp9c4pviz9k-fill" data-item-order="-511180" transform="translate(416.0, 212.0)">
<g id="cp_1-2_g-1-2_lines_dgp9c4pviz9k-fill-merged" stroke="none" fill="url(#gradient-76aaff-336274919)" fill-opacity="1.0">
<g>
<path d="M82 132C82 134.209 80.209 136 78 136 H14C11.791 136 10 134.209 10 132 V20C10 14.477 14.477 10 20 10 H96C101.523 10 106 14.477 106 20 V21 H82 V132"></path>
</g>
</g>
</g>
<g id="g-root-cp_1-2_g-1-2_lines_dgp9c4pviz9k-stroke" data-item-order="-511180" transform="translate(416.0, 212.0)">
<g id="cp_1-2_g-1-2_lines_dgp9c4pviz9k-stroke" fill="none" stroke-linecap="round" stroke-linejoin="round" stroke-miterlimit="4" stroke="#484848" stroke-width="2" stroke-opacity="1.0">
<g>
<path d="M 92 10L 20 10C 14.4772 10 10 14.4772 10 20L 10 22M 92 10C 86.4772 10 82 14.4772 82 20L 82 22M 92 10L 96 10C 101.5229 10 106 14.4772 106 20L 106 21M 82 132.007751L 82 22.007767M 10 22.007889L 10 132.007751M 82 132C 82 134.2091 80.2091 136 78 136L 14 136C 11.7909 136 10 134.2091 10 132"></path>
</g>
</g>
</g>
<g id="g-root-cp_2_common_2-2_1cz9abopvizns-fill" data-item-order="-511158" transform="translate(404.0, 374.0)">
<g id="cp_2_common_2-2_1cz9abopvizns-fill-merged" stroke="none" fill="url(#gradient-b6b6b6-242349474)" fill-opacity="1.0">
<g>
<path d="M 22 10L 14 10C 11.7909 10 10 11.7909 10 14L 22 14L 22 10ZM 94 14L 358 14C 358 11.7909 356.2092 10 354 10L 94 10L 94 14ZM 22 13.998047L 22 14.002502L 10 13.998047L 10 117.998047L 22 117.998047L 22 13.998047ZM 94 117.998047L 358 117.998047L 358 13.998047L 94 13.998047L 94 117.998047ZM 21.9998 118L 10 118L 10 126C 10 128.2091 11.7907 130 13.9998 130L 21.9998 130L 21.9998 118ZM 93.9998 130L 345.9998 130L 357.9998 118C 357.9998 118 348.209 118 345.9998 118L 93.9998 118L 93.9998 130ZM 345.9998 130L 345.9998 118L 357.9998 118L 345.9998 130ZM 345.9998 130L 357.9998 118L 345.9998 118L 345.9998 130Z"></path>
</g>
</g>
</g>
<g id="g-root-cp_2_common_2-2_1cz9abopvizns-stroke" data-item-order="-511158" transform="translate(404.0, 374.0)">
<g id="cp_2_common_2-2_1cz9abopvizns-stroke" fill="none" stroke-linecap="round" stroke-linejoin="round" stroke-miterlimit="4" stroke="#484848" stroke-width="2" stroke-opacity="1.0">
<g>
<path d="M 22 10L 14 10C 11.7909 10 10 11.7909 10 14M 358 14C 358 11.7909 356.2091 10 354 10L 94 10M 358 14L 358 118M 10 118L 10 14M 346 130L 358 118L 346 118L 346 130ZM 21 130L 14 130C 11.7909 130 10 128.2091 10 126L 10 118M 346 130L 94 130"></path>
</g>
</g>
</g>
<g id="g-root-cp_2-2_g-2-2_lines_58qyspvj091-fill" data-item-order="-511144" transform="translate(416.0, 362.0)">
<g id="cp_2-2_g-2-2_lines_58qyspvj091-fill-merged" stroke="none" fill="url(#gradient-76aaff-336274919)" fill-opacity="1.0">
<g>
<path d="M82 150C82 152.209 80.209 154 78 154 H14C11.791 154 10 152.209 10 150 V20C10 14.477 14.477 10 20 10 H96C101.523 10 106 14.477 106 20 V21 H82 V150"></path>
</g>
</g>
</g>
<g id="g-root-cp_2-2_g-2-2_lines_58qyspvj091-stroke" data-item-order="-511144" transform="translate(416.0, 362.0)">
<g id="cp_2-2_g-2-2_lines_58qyspvj091-stroke" fill="none" stroke-linecap="round" stroke-linejoin="round" stroke-miterlimit="4" stroke="#484848" stroke-width="2" stroke-opacity="1.0">
<g>
<path d="M 92 10L 20 10C 14.4772 10 10 14.4772 10 20L 10 22M 92 10C 86.4772 10 82 14.4772 82 20L 82 22M 92 10L 96 10C 101.5229 10 106 14.4772 106 20L 106 21M 82 150.007721L 82 22.007721M 10 22.007874L 10 150.007721M 82 150C 82 152.2091 80.2091 154 78 154L 14 154C 11.7909 154 10 152.2091 10 150"></path>
</g>
</g>
</g>
<g id="g-root-cp_2_common_3-2_v7z9twpvj0ni-fill" data-item-order="-511122" transform="translate(404.0, 542.0)">
<g id="cp_2_common_3-2_v7z9twpvj0ni-fill-merged" stroke="none" fill="url(#gradient-b6b6b6-242349474)" fill-opacity="1.0">
<g>
<path d="M 22 10L 14 10C 11.7909 10 10 11.7909 10 14L 22 14L 22 10ZM 94 14L 358 14C 358 11.7909 356.2092 10 354 10L 94 10L 94 14ZM 22 13.998047L 22 14.002502L 10 13.998047L 10 117.998047L 22 117.998047L 22 13.998047ZM 94 117.998047L 358 117.998047L 358 13.998047L 94 13.998047L 94 117.998047ZM 21.9998 118L 10 118L 10 126C 10 128.2091 11.7907 130 13.9998 130L 21.9998 130L 21.9998 118ZM 93.9998 130L 345.9998 130L 357.9998 118C 357.9998 118 348.209 118 345.9998 118L 93.9998 118L 93.9998 130ZM 345.9998 130L 345.9998 118L 357.9998 118L 345.9998 130ZM 345.9998 130L 357.9998 118L 345.9998 118L 345.9998 130Z"></path>
</g>
</g>
</g>
<g id="g-root-cp_2_common_3-2_v7z9twpvj0ni-stroke" data-item-order="-511122" transform="translate(404.0, 542.0)">
<g id="cp_2_common_3-2_v7z9twpvj0ni-stroke" fill="none" stroke-linecap="round" stroke-linejoin="round" stroke-miterlimit="4" stroke="#484848" stroke-width="2" stroke-opacity="1.0">
<g>
<path d="M 22 10L 14 10C 11.7909 10 10 11.7909 10 14M 358 14C 358 11.7909 356.2091 10 354 10L 94 10M 358 14L 358 118M 10 118L 10 14M 346 130L 358 118L 346 118L 346 130ZM 21 130L 14 130C 11.7909 130 10 128.2091 10 126L 10 118M 346 130L 94 130"></path>
</g>
</g>
</g>
<g id="g-root-cp_3-2_g-3-2_lines_v7z9twpvj11r-fill" data-item-order="-511108" transform="translate(416.0, 530.0)">
<defs>
<linearGradient id="gradient-b6b6b6-242349474" x2="0" y2="1">
<stop offset="0" stop-color="#c8c8c8"></stop>
<stop offset="1" stop-color="#a3a3a3"></stop>
</linearGradient>
<linearGradient id="gradient-fe8884-345532732" x2="0" y2="1">
<stop offset="0" stop-color="#ffa6a3"></stop>
<stop offset="1" stop-color="#fd6a65"></stop>
</linearGradient>
<linearGradient id="gradient-76aaff-336274919" x2="0" y2="1">
<stop offset="0" stop-color="#9cc2ff"></stop>
<stop offset="1" stop-color="#4f92ff"></stop>
</linearGradient>
</defs>
<g id="cp_3-2_g-3-2_lines_v7z9twpvj11r-fill-merged" stroke="none" fill="url(#gradient-76aaff-336274919)" fill-opacity="1.0">
<g>
<path d="M82 150C82 152.209 80.209 154 78 154 H14C11.791 154 10 152.209 10 150 V20C10 14.477 14.477 10 20 10 H96C101.523 10 106 14.477 106 20 V21 H82 V150"></path>
</g>
</g>
</g>
<g id="g-root-cp_3-2_g-3-2_lines_v7z9twpvj11r-stroke" data-item-order="-511108" transform="translate(416.0, 530.0)">
<g id="cp_3-2_g-3-2_lines_v7z9twpvj11r-stroke" fill="none" stroke-linecap="round" stroke-linejoin="round" stroke-miterlimit="4" stroke="#484848" stroke-width="2" stroke-opacity="1.0">
<g>
<path d="M 92 10L 20 10C 14.4772 10 10 14.4772 10 20L 10 22M 92 10C 86.4772 10 82 14.4772 82 20L 82 22M 92 10L 96 10C 101.5229 10 106 14.4772 106 20L 106 21M 82 150.00769L 82 22.007721M 10 22.007874L 10 150.00769M 82 150C 82 152.2091 80.2091 154 78 154L 14 154C 11.7909 154 10 152.2091 10 150"></path>
</g>
</g>
</g>
<g id="g-root-tx_200500_1lw58qspviyh7-fill" data-item-order="0" transform="translate(110.0, 236.0)">
<g id="tx_200500_1lw58qspviyh7-fill-merged" stroke="none" fill="#484848" fill-opacity="1.0">
<g>
<text transform="translate(10.0, 22.0)" style="font-size:20px; font-family:'Roboto', napkin-fallback, sans-serif; font-weight:bold; white-space:pre;">
<tspan x="2" y="12" dominant-baseline="ideographic">“基本覆盖费用为每月 </tspan>
<tspan x="2" y="36" dominant-baseline="ideographic">200-500 美元。”</tspan>
</text>
</g>
</g>
</g>
<g id="g-root-tx_200500_1lw58qspviyh7-stroke" data-item-order="0" transform="translate(110.0, 236.0)"></g>
<g id="g-root-tx__6hp50pvj08z-fill" data-item-order="0" transform="translate(110.0, 296.0)">
<g id="tx__6hp50pvj08z-fill-merged" stroke="none" fill="#484848" fill-opacity="1.0">
<g>
<text transform="translate(10.0, 10.0)" style="font-size:15px; font-family:'Roboto', napkin-fallback, sans-serif; font-weight:bold; white-space:pre;">
<tspan x="2" y="18" dominant-baseline="ideographic">这是基本服务的重大月度开支。</tspan>
</text>
</g>
</g>
</g>
<g id="g-root-tx__6hp50pvj08z-stroke" data-item-order="0" transform="translate(110.0, 296.0)"></g>
<g id="g-root-ic_doll_4mxockpviy30-fill" data-item-order="0" transform="translate(38.0, 251.0)"></g>
<g id="g-root-ic_doll_4mxockpviy30-stroke" data-item-order="0" transform="translate(38.0, 251.0)">
<g id="ic_doll_4mxockpviy30-stroke" fill="none" stroke-linecap="round" stroke-linejoin="round" stroke-miterlimit="4" stroke="#484848" stroke-width="2" stroke-opacity="1.0">
<g>
<path d="M 40.052002 49.914001C 42.842842 47.866676 44.523487 44.638416 44.600002 41.178001C 44.599998 34.554001 38.155998 29.177999 30.200001 29.177999C 28.629322 29.177887 27.06629 29.396656 25.556 29.828001C 24.655941 28.562813 23.394947 27.598768 21.938 27.062C 21.633621 26.957029 21.297321 27.005033 21.034468 27.190973C 20.771616 27.376913 20.614368 27.678038 20.612 28L 20.612 32.279999C 18.990255 33.484554 17.738865 35.119816 17 37L 15 37C 14.447716 37 14 37.447716 14 38L 14 44C 14 44.552284 14.447716 45 15 45L 17 45C 17.801832 47.141479 19.2029 49.007027 21.035999 50.374001L 19.784 53.773998C 19.460346 54.584473 19.602146 55.50676 20.154314 56.182575C 20.706484 56.858391 21.581985 57.18121 22.440712 57.025627C 23.299438 56.870045 24.006033 56.260582 24.285999 55.434002L 25.380001 52.466C 28.784204 53.485996 32.423317 53.406914 35.779999 52.239998L 36.958 55.439999C 37.237968 56.266582 37.944561 56.876041 38.803288 57.031628C 39.662014 57.18721 40.537518 56.864388 41.089684 56.188572C 41.641853 55.512756 41.783653 54.590473 41.459999 53.780003ZM 44.599998 41.178001C 47.799999 41.178001 49.400002 39.577999 49.400002 37.178001M 23.507999 38C 23.784142 38 24.007999 38.223858 24.007999 38.5C 24.007999 38.776142 23.784142 39 23.507999 39C 23.231857 39 23.007999 38.776142 23.007999 38.5C 23.007999 38.223858 23.231857 38 23.507999 38M 31.493999 23.546C 30.900055 18.233452 34.112659 13.23232 39.191185 11.563628C 44.269711 9.894937 49.822495 12.015953 52.495285 16.645439C 55.168072 21.274925 54.228443 27.144274 50.243999 30.708M 43.007999 16L 43.007999 14M 46 16L 41.942001 16C 40.656754 16.000898 39.552536 16.912786 39.308643 18.174677C 39.064751 19.436569 39.749653 20.694248 40.942001 21.174L 45.07 22.826C 46.261654 23.305466 46.94656 24.562025 46.703751 25.823364C 46.460941 27.084703 45.358494 27.997194 44.074001 28L 40 28M 43.007999 30L 43.007999 28"></path>
</g>
</g>
</g>
<g id="g-root-tx__hzn4w4pvlsll-fill" data-item-order="0" transform="translate(110.0, 386.0)">
<g id="tx__hzn4w4pvlsll-fill-merged" stroke="none" fill="#484848" fill-opacity="1.0">
<g>
<text transform="translate(10.0, 10.0)" style="font-size:20px; font-family:'Roboto', napkin-fallback, sans-serif; font-weight:bold; white-space:pre;">
<tspan x="2" y="24" dominant-baseline="ideographic">接线员不了解您的业务。</tspan>
</text>
</g>
</g>
</g>
<g id="g-root-tx__hzn4w4pvlsll-stroke" data-item-order="0" transform="translate(110.0, 386.0)"></g>
<g id="g-root-tx__1qdu64kpvltdz-fill" data-item-order="0" transform="translate(110.0, 422.0)">
<g id="tx__1qdu64kpvltdz-fill-merged" stroke="none" fill="#484848" fill-opacity="1.0">
<g>
<text transform="translate(10.0, 10.0)" style="font-size:15px; font-family:'Roboto', napkin-fallback, sans-serif; font-weight:bold; white-space:pre;">
<tspan x="2" y="18" dominant-baseline="ideographic">缺乏对您公司运营的具体了解。</tspan>
</text>
</g>
</g>
</g>
<g id="g-root-tx__1qdu64kpvltdz-stroke" data-item-order="0" transform="translate(110.0, 422.0)"></g>
<g id="g-root-ic_ques_18n6mpwpvlrt5-fill" data-item-order="0" transform="translate(38.0, 389.0)"></g>
<g id="g-root-ic_ques_18n6mpwpvlrt5-stroke" data-item-order="0" transform="translate(38.0, 389.0)">
<g id="ic_ques_18n6mpwpvlrt5-stroke" fill="none" stroke-linecap="round" stroke-linejoin="round" stroke-miterlimit="4" stroke="#484848" stroke-width="2" stroke-opacity="1.0">
<g>
<path d="M 42 21C 42 19.343147 43.343147 18 45 18C 46.656857 18 48 19.343147 48 21C 48 22.656855 46.656857 24 45 24M 45 27C 45.276142 27 45.5 27.223858 45.5 27.5C 45.5 27.776142 45.276142 28 45 28C 44.723858 28 44.5 27.776142 44.5 27.5C 44.5 27.223858 44.723858 27 45 27M 44.866001 11C 40.463066 10.994944 36.403816 13.378454 34.262985 17.225883C 32.122154 21.073315 32.236629 25.779215 34.562 29.518002L 31 37L 38.482002 33.436001C 42.855595 36.14727 48.464031 35.803398 52.473644 32.578133C 56.483253 29.352871 58.021049 23.948427 56.310055 19.095407C 54.59906 14.242387 50.011803 10.997408 44.866001 11ZM 27.224001 35.625999C 25.950001 34.253998 24.726 32.854 23.568001 31.440001L 24.984001 30.025999C 26.545528 28.464001 26.545528 25.931999 24.984001 24.369999L 20.737999 20.128C 19.176001 18.566471 16.643999 18.566471 15.082 20.128L 12.756001 22.456001C 10.741374 24.470592 10.425194 27.625702 12 30C 18.848694 40.311676 27.688326 49.15131 38 56.000004C 40.376801 57.571697 43.531185 57.254921 45.548 55.242001L 47.875999 52.917999C 49.437527 51.355999 49.437527 48.824001 47.875999 47.262001L 43.633999 43.015999C 42.071774 41.45314 39.538231 41.45314 37.975998 43.015999L 36.562 44.43C 35.150002 43.271999 33.748001 42.048 32.374001 40.774002"></path>
</g>
</g>
</g>
<g id="g-root-tx__8d4ecpvolxr-fill" data-item-order="0" transform="translate(110.0, 512.0)">
<g id="tx__8d4ecpvolxr-fill-merged" stroke="none" fill="#484848" fill-opacity="1.0">
<g>
<text transform="translate(10.0, 10.0)" style="font-size:20px; font-family:'Roboto', napkin-fallback, sans-serif; font-weight:bold; white-space:pre;">
<tspan x="2" y="24" dominant-baseline="ideographic">互动背后没有智能。</tspan>
</text>
</g>
</g>
</g>
<g id="g-root-tx__8d4ecpvolxr-stroke" data-item-order="0" transform="translate(110.0, 512.0)"></g>
<g id="g-root-tx__qva550pvomx0-fill" data-item-order="0" transform="translate(110.0, 548.0)">
<g id="tx__qva550pvomx0-fill-merged" stroke="none" fill="#484848" fill-opacity="1.0">
<g>
<text transform="translate(10.0, 10.0)" style="font-size:15px; font-family:'Roboto', napkin-fallback, sans-serif; font-weight:bold; white-space:pre;">
<tspan x="2" y="18" dominant-baseline="ideographic">互动纯粹基于脚本，缺乏适应性。</tspan>
</text>
</g>
</g>
</g>
<g id="g-root-tx__qva550pvomx0-stroke" data-item-order="0" transform="translate(110.0, 548.0)"></g>
<g id="g-root-ic_6_zrjmh0pvokqx-fill" data-item-order="0" transform="translate(38.0, 515.0)"></g>
<g id="g-root-ic_6_zrjmh0pvokqx-stroke" data-item-order="0" transform="translate(38.0, 515.0)">
<g id="ic_6_zrjmh0pvokqx-stroke" fill="none" stroke-linecap="round" stroke-linejoin="round" stroke-miterlimit="4" stroke="#484848" stroke-width="2" stroke-opacity="1.0">
<g>
<path d="M 20.112 27.856001L 47.889999 27.856001C 47.889999 27.856001 51.889999 27.856001 51.889999 31.856001L 51.889999 52.478001C 51.889999 52.478001 51.889999 56.478001 47.889999 56.478001L 20.112 56.478001C 20.112 56.478001 16.112 56.478001 16.112 52.478001L 16.112 31.856001C 16.112 31.856001 16.112 27.856001 20.112 27.856001M 51.888 48.042L 57 46.256001L 57 42.166L 57 38.077999L 51.888 36.290001M 16.112 48.042L 11 46.256001L 11 42.166L 11 38.077999L 16.112 36.290001M 21.821999 42.166C 21.821999 44.375137 23.612862 46.166 25.821999 46.166C 28.031139 46.166 29.822001 44.375137 29.822001 42.166C 29.822001 39.956863 28.031139 38.166 25.821999 38.166C 23.612862 38.166 21.821999 39.956863 21.821999 42.166M 38.178001 42.166C 38.178001 44.375137 39.968861 46.166 42.178001 46.166C 44.387138 46.166 46.178001 44.375137 46.178001 42.166C 46.178001 39.956863 44.387138 38.166 42.178001 38.166C 39.968861 38.166 38.178001 39.956863 38.178001 42.166M 34 27.856001L 34 21.722M 28.888 16.612C 28.887753 19.435455 31.176546 21.724445 34 21.724445C 36.823456 21.724445 39.112244 19.435455 39.112 16.612C 39.112244 13.788546 36.823456 11.499554 34 11.499554C 31.176546 11.499554 28.887753 13.788546 28.888 16.612M 16.112 34.169998L 51.888 34.169998M 26 56.5L 28.666 50.5L 39.334 50.5L 42 56.5"></path>
</g>
</g>
</g>
<g id="g-root-tx__1qf34aspvpzbc-fill" data-item-order="0" transform="translate(497.5, 137.0)">
<g id="tx__1qf34aspvpzbc-fill-merged" stroke="none" fill="#4e88e7" fill-opacity="1.0">
<g>
<text transform="translate(97.5, 10.0)" style="font-size:25px; font-family:'Roboto', napkin-fallback, sans-serif; white-space:pre;">
<tspan x="-85.5" y="30" dominant-baseline="ideographic">人工智能接待员</tspan>
</text>
</g>
</g>
</g>
<g id="g-root-tx__1qf34aspvpzbc-stroke" data-item-order="0" transform="translate(497.5, 137.0)"></g>
<g id="g-root-tx__vcclfopvpzwq-fill" data-item-order="0" transform="translate(500.0, 236.0)">
<g id="tx__vcclfopvpzwq-fill-merged" stroke="none" fill="#484848" fill-opacity="1.0">
<g>
<text transform="translate(10.0, 22.0)" style="font-size:20px; font-family:'Roboto', napkin-fallback, sans-serif; font-weight:bold; white-space:pre;">
<tspan x="2" y="12" dominant-baseline="ideographic">未明确说明，但暗示比人</tspan>
<tspan x="2" y="36" dominant-baseline="ideographic">工代理更具成本效益。</tspan>
</text>
</g>
</g>
</g>
<g id="g-root-tx__vcclfopvpzwq-stroke" data-item-order="0" transform="translate(500.0, 236.0)"></g>
<g id="g-root-tx__1qbc9s4pvj0nf-fill" data-item-order="0" transform="translate(120.0, 137.0)">
<g id="tx__1qbc9s4pvj0nf-fill-merged" stroke="none" fill="#e55753" fill-opacity="1.0">
<g>
<text transform="translate(85.0, 10.0)" style="font-size:25px; font-family:'Roboto', napkin-fallback, sans-serif; white-space:pre;">
<tspan x="-73" y="30" dominant-baseline="ideographic">传统接线服务</tspan>
</text>
</g>
</g>
</g>
<g id="g-root-tx__1qbc9s4pvj0nf-stroke" data-item-order="0" transform="translate(120.0, 137.0)"></g>
<g id="g-root-ic_calc_1q5q004pvrdok-fill" data-item-order="0" transform="translate(428.0, 251.0)"></g>
<g id="g-root-ic_calc_1q5q004pvrdok-stroke" data-item-order="0" transform="translate(428.0, 251.0)">
<g id="ic_calc_1q5q004pvrdok-stroke" fill="none" stroke-linecap="round" stroke-linejoin="round" stroke-miterlimit="4" stroke="#484848" stroke-width="2" stroke-opacity="1.0">
<g>
<path d="M 31 43L 13 43C 11.895431 43 11 42.104568 11 41L 11 13C 11 11.895431 11.895431 11 13 11L 47 11C 48.104568 11 49 11.895431 49 13L 49 27M 18.76 31.459999L 25.139999 25.139999C 25.516281 24.755175 26.031782 24.53825 26.57 24.53825C 27.108217 24.53825 27.623718 24.755175 28 25.139999L 30 27.139999C 30.388617 27.536831 30.924755 27.754185 31.48 27.74C 32.036533 27.717363 32.558414 27.463671 32.919998 27.040001L 41 18M 35 18L 41 18L 41 24M 41 45.5C 41.276142 45.5 41.5 45.723858 41.5 46C 41.5 46.276142 41.276142 46.5 41 46.5C 40.723858 46.5 40.5 46.276142 40.5 46C 40.5 45.723858 40.723858 45.5 41 45.5M 41 50.52C 41.276142 50.52 41.5 50.743858 41.5 51.02C 41.5 51.296143 41.276142 51.52 41 51.52C 40.723858 51.52 40.5 51.296143 40.5 51.02C 40.5 50.743858 40.723858 50.52 41 50.52M 46 45.48C 46.276142 45.48 46.5 45.703857 46.5 45.98C 46.5 46.256142 46.276142 46.48 46 46.48C 45.723858 46.48 45.5 46.256142 45.5 45.98C 45.5 45.703857 45.723858 45.48 46 45.48M 51 45.48C 51.276142 45.48 51.5 45.703857 51.5 45.98C 51.5 46.256142 51.276142 46.48 51 46.48C 50.723858 46.48 50.5 46.256142 50.5 45.98C 50.5 45.703857 50.723858 45.48 51 45.48M 46 50.5C 46.276142 50.5 46.5 50.723858 46.5 51C 46.5 51.276142 46.276142 51.5 46 51.5C 45.723858 51.5 45.5 51.276142 45.5 51C 45.5 50.723858 45.723858 50.5 46 50.5M 51 50.5C 51.276142 50.5 51.5 50.723858 51.5 51C 51.5 51.276142 51.276142 51.5 51 51.5C 50.723858 51.5 50.5 51.276142 50.5 51C 50.5 50.723858 50.723858 50.5 51 50.5M 53 40C 53.017883 40.270302 52.918282 40.535179 52.72673 40.72673C 52.535179 40.918282 52.270302 41.017883 52 41L 40 41C 39.72403 41.012493 39.456051 40.905495 39.264576 40.706367C 39.073105 40.507233 38.976692 40.235268 39 39.959999L 39 36C 38.982117 35.729698 39.081718 35.464821 39.27327 35.27327C 39.464821 35.081718 39.729698 34.982117 40 35L 52 35C 52.270302 34.982117 52.535179 35.081718 52.72673 35.27327C 52.918282 35.464821 53.017883 35.729698 53 36ZM 37 31L 55 31C 55 31 57 31 57 33L 57 55C 57 55 57 57 55 57L 37 57C 37 57 35 57 35 55L 35 33C 35 33 35 31 37 31"></path>
</g>
</g>
</g>
<g id="g-root-tx__1q5q004pvss93-fill" data-item-order="0" transform="translate(500.0, 386.0)">
<g id="tx__1q5q004pvss93-fill-merged" stroke="none" fill="#484848" fill-opacity="1.0">
<g>
<text transform="translate(10.0, 22.0)" style="font-size:20px; font-family:'Roboto', napkin-fallback, sans-serif; font-weight:bold; white-space:pre;">
<tspan x="2" y="12" dominant-baseline="ideographic">暗示可以访问业务信息以</tspan>
<tspan x="2" y="36" dominant-baseline="ideographic">进行智能处理。</tspan>
</text>
</g>
</g>
</g>
<g id="g-root-tx__1q5q004pvss93-stroke" data-item-order="0" transform="translate(500.0, 386.0)"></g>
<g id="g-root-tx__4pfkp0pvsu80-fill" data-item-order="0" transform="translate(500.0, 446.0)">
<g id="tx__4pfkp0pvsu80-fill-merged" stroke="none" fill="#484848" fill-opacity="1.0">
<g>
<text transform="translate(10.0, 19.0)" style="font-size:15px; font-family:'Roboto', napkin-fallback, sans-serif; font-weight:bold; white-space:pre;">
<tspan x="2" y="9" dominant-baseline="ideographic">由于可以访问数据，因此可以提供</tspan>
<tspan x="2" y="27" dominant-baseline="ideographic">更明智的响应。</tspan>
</text>
</g>
</g>
</g>
<g id="g-root-tx__4pfkp0pvsu80-stroke" data-item-order="0" transform="translate(500.0, 446.0)"></g>
<g id="g-root-ic_sett_13ymhdwpvu77s-fill" data-item-order="0" transform="translate(428.0, 410.0)"></g>
<g id="g-root-ic_sett_13ymhdwpvu77s-stroke" data-item-order="0" transform="translate(428.0, 410.0)">
<g id="ic_sett_13ymhdwpvu77s-stroke" fill="none" stroke-linecap="round" stroke-linejoin="round" stroke-miterlimit="4" stroke="#484848" stroke-width="2" stroke-opacity="1.0">
<g>
<path d="M 42.84 48.5L 46 51.68C 46.780075 52.455448 48.039925 52.455448 48.82 51.68L 51.66 48.84C 52.435448 48.059925 52.435448 46.800076 51.66 46.02L 48.48 42.84C 49.398418 40.988853 50.070789 39.025536 50.480003 37L 55 37C 56.104568 37 57 36.104568 57 35L 57 33C 57 31.89543 56.104568 31 55 31L 50.5 31C 50.09079 28.974466 49.418419 27.01115 48.500004 25.16L 51.68 22C 52.455448 21.219925 52.455448 19.960075 51.68 19.18L 48.84 16.32C 48.059925 15.544553 46.800076 15.544553 46.02 16.32L 42.84 19.5C 40.988853 18.581583 39.025536 17.909214 37 17.5L 37 13C 37 11.895431 36.104568 11 35 11L 33 11C 31.89543 11 31 11.895431 31 13L 31 17.5C 28.974466 17.909214 27.01115 18.581583 25.16 19.5L 22 16.32C 21.219925 15.544553 19.960075 15.544553 19.18 16.32L 16.32 19.16C 15.941375 19.535534 15.728403 20.046726 15.728403 20.58C 15.728403 21.113276 15.941375 21.624466 16.32 22L 19.5 25.16C 18.581583 27.01115 17.909214 28.974466 17.5 31.000002L 13 31C 11.895431 31 11 31.89543 11 33L 11 35C 11 36.104568 11.895431 37 13 37L 17.5 37C 17.909214 39.025536 18.581583 40.988853 19.5 42.840004L 16.32 46C 15.544553 46.780075 15.544553 48.039925 16.32 48.82L 19.139999 51.66C 19.515533 52.038624 20.026726 52.251598 20.560001 52.251598C 21.093275 52.251598 21.604465 52.038624 21.98 51.66L 25.16 48.48M 31 51L 37 51M 31 55L 37 55M 34 55L 34 57M 45.740002 34C 45.511883 27.731316 40.270252 22.82008 34 23C 27.729748 22.82008 22.488119 27.731316 22.26 34C 22.471712 39.104187 26.036333 43.451885 31 44.66L 31 47L 37 47L 37 44.740002C 41.99131 43.523701 45.563293 39.134331 45.740002 34Z"></path>
</g>
</g>
</g>
<g id="g-root-tx__v48fb8pvu7ly-fill" data-item-order="0" transform="translate(500.0, 554.0)">
<g id="tx__v48fb8pvu7ly-fill-merged" stroke="none" fill="#484848" fill-opacity="1.0">
<g>
<text transform="translate(10.0, 22.0)" style="font-size:20px; font-family:'Roboto', napkin-fallback, sans-serif; font-weight:bold; white-space:pre;">
<tspan x="2" y="12" dominant-baseline="ideographic">系统使用智能来处理呼</tspan>
<tspan x="2" y="36" dominant-baseline="ideographic">叫。</tspan>
</text>
</g>
</g>
</g>
<g id="g-root-tx__v48fb8pvu7ly-stroke" data-item-order="0" transform="translate(500.0, 554.0)"></g>
<g id="g-root-tx__8x4wp0pvu9dx-fill" data-item-order="0" transform="translate(500.0, 614.0)">
<g id="tx__8x4wp0pvu9dx-fill-merged" stroke="none" fill="#484848" fill-opacity="1.0">
<g>
<text transform="translate(10.0, 19.0)" style="font-size:15px; font-family:'Roboto', napkin-fallback, sans-serif; font-weight:bold; white-space:pre;">
<tspan x="2" y="9" dominant-baseline="ideographic">互动是动态的，可以适应不同的场</tspan>
<tspan x="2" y="27" dominant-baseline="ideographic">景。</tspan>
</text>
</g>
</g>
</g>
<g id="g-root-tx__8x4wp0pvu9dx-stroke" data-item-order="0" transform="translate(500.0, 614.0)"></g>
<g id="g-root-ic_1_htee10pvu7sw-fill" data-item-order="0" transform="translate(428.0, 578.0)"></g>
<g id="g-root-ic_1_htee10pvu7sw-stroke" data-item-order="0" transform="translate(428.0, 578.0)">
<g id="ic_1_htee10pvu7sw-stroke" fill="none" stroke-linecap="round" stroke-linejoin="round" stroke-miterlimit="4" stroke="#484848" stroke-width="2" stroke-opacity="1.0">
<g>
<path d="M 21.9 50.722C 24.020437 50.369061 25.810703 48.951202 26.639999 46.967999M 14.842 27.091999C 18.933346 27.809448 22.448338 30.41087 24.33 34.113998M 21.566 30.458L 25.152 27.768M 30 11.346C 29.961555 13.350931 29.599562 15.336494 28.928001 17.226M 26 19C 26 20.104568 26.89543 21 28 21C 29.10457 21 30 20.104568 30 19C 30 17.895432 29.10457 17 28 17C 26.89543 17 26 17.895432 26 19ZM 38 23C 38 24.104568 38.895432 25 40 25C 41.104568 25 42 24.104568 42 23C 42 21.895432 41.104568 21 40 21C 38.895432 21 38 21.895432 38 23ZM 45 31C 45 32.104568 45.895432 33 47 33C 48.104568 33 49 32.104568 49 31C 49 29.89543 48.104568 29 47 29C 45.895432 29 45 29.89543 45 31ZM 38 38C 38 39.104568 38.895432 40 40 40C 41.104568 40 42 39.104568 42 38C 42 36.895432 41.104568 36 40 36C 38.895432 36 38 36.895432 38 38ZM 25 27C 25 28.10457 25.895432 29 27 29C 28.10457 29 29 28.10457 29 27C 29 25.895432 28.10457 25 27 25C 25.895432 25 25 25.895432 25 27ZM 23 36C 23 37.104568 23.895432 38 25 38C 26.10457 38 27 37.104568 27 36C 27 34.895432 26.10457 34 25 34C 23.895432 34 23 34.895432 23 36ZM 57 34C 57.008011 31.185829 55.553005 28.569696 53.158001 27.092001C 53.293533 26.501471 53.363956 25.897869 53.368 25.292C 53.408073 21.133251 50.242878 17.643175 46.099998 17.278C 46.141312 15.640398 45.524818 14.054508 44.388306 12.874773C 43.251789 11.695037 41.690002 11.019809 40.052002 11C 37.462227 11.148269 35.151451 12.67555 34 15C 32.848549 12.67555 30.537773 11.148269 27.948 11C 26.309998 11.019809 24.748211 11.695037 23.611694 12.874773C 22.47518 14.054508 21.858686 15.640398 21.9 17.278C 17.755573 17.643291 14.589825 21.135719 14.632 25.296C 14.632763 25.901501 14.699829 26.505098 14.832 27.095999C 12.44329 28.57963 10.990566 31.192043 10.990566 34.003998C 10.990566 36.815956 12.44329 39.428368 14.832 40.911999C 14.699829 41.502899 14.632763 42.106499 14.632 42.711998C 14.594027 46.869217 17.758669 50.356941 21.9 50.722C 21.858686 52.3596 22.47518 53.945492 23.611694 55.125225C 24.748211 56.304962 26.309998 56.98019 27.948 57C 30.33633 57.057899 32.59996 55.93581 34 53.999996C 35.40004 55.93581 37.663666 57.057899 40.051998 56.999996C 41.690002 56.98019 43.251789 56.304962 44.388306 55.125225C 45.524818 53.945492 46.141312 52.3596 46.099998 50.722C 50.244423 50.356709 53.410175 46.864277 53.368 42.703999C 53.363956 42.098129 53.293533 41.49453 53.157997 40.903999C 55.551788 39.427048 57.006618 36.812752 57 34ZM 34 15L 34 38M 34 45.916L 34 54M 52.346001 21.326L 46.799999 24.102001C 45.179813 24.913155 43.276203 24.932337 41.639999 24.153999M 40 36C 40.593044 33.525269 42.525269 31.593044 45.000004 31.000002M 46.099998 50.722C 45.548 48.799999 44.605999 47.321999 43 47M 25 45C 25 46.104568 25.895432 47 27 47C 28.10457 47 29 46.104568 29 45C 29 43.895432 28.10457 43 27 43C 25.895432 43 25 43.895432 25 45ZM 39 47C 39 48.104568 39.895432 49 41 49C 42.104568 49 43 48.104568 43 47C 43 45.895432 42.104568 45 41 45C 39.895432 45 39 45.895432 39 47Z"></path>
</g>
</g>
</g>
<g id="g-root-tx__5v81wpviy9t-fill" data-item-order="0" transform="translate(140.0, 38.0)">
<g id="tx__5v81wpviy9t-fill-merged" stroke="none" fill="#484848" fill-opacity="1.0">
<g>
<text transform="translate(260.0, 10.0)" style="font-size:25px; font-family:'Roboto', napkin-fallback, sans-serif; font-weight:bold; white-space:pre;">
<tspan x="-248" y="30" dominant-baseline="ideographic">哪种售后电话处理方式最适合您的业务需求？</tspan>
</text>
</g>
</g>
</g>
<g id="g-root-tx__5v81wpviy9t-stroke" data-item-order="0" transform="translate(140.0, 38.0)"></g>
<g id="g-root-tx__1hjg41wpvq1aa-fill" data-item-order="0" transform="translate(500.0, 296.0)">
<g id="tx__1hjg41wpvq1aa-fill-merged" stroke="none" fill="#484848" fill-opacity="1.0">
<g>
<text transform="translate(10.0, 10.0)" style="font-size:15px; font-family:'Roboto', napkin-fallback, sans-serif; font-weight:bold; white-space:pre;">
<tspan x="2" y="18" dominant-baseline="ideographic">由于自动化，成本通常较低。</tspan>
</text>
</g>
</g>
</g>
<g id="g-root-tx__1hjg41wpvq1aa-stroke" data-item-order="0" transform="translate(500.0, 296.0)"></g>
</g>
</g>
<path id="wmgpockpvhl39" d="M65.283 12.757a.35.35 0 0 0 .584.157l5.203-5.141-6.183 3.523.396 1.461zm-2.216-11.7a.35.35 0 0 0-.522.305v3.111l3.276-1.868-2.754-1.548zm3.728 2.105l-4.25 2.421v2.445l6.391-3.644-2.141-1.222zm4.708 3.303a.35.35 0 0 0 0-.609l-1.592-.9-7.365 4.199v1.782a.35.35 0 0 0 .523.305l8.435-4.777z M44.542 2.513c0-.433.355-.783.792-.783s.792.35.792.783-.355.783-.792.783-.792-.35-.792-.783zm59.171 0c0-.433.355-.783.792-.783s.792.35.792.783-.355.783-.792.783-.792-.35-.792-.783zm-85.951 7.636h-1.27v-.487c-.276.201-.864.609-1.881.609-1.202 0-2.274-.794-2.137-2.078.118-1.106 1.153-1.584 1.848-1.727l2.17-.345c0-.539-.29-.956-1.064-1.006s-1.21.305-1.571 1.017l-1.124-.605c1.218-2.631 5.029-1.764 5.029.414v4.207zm-1.27-2.86c.006.396-.062 1.112-.819 1.59-.587.37-1.841.299-1.903-.395-.049-.555.461-.791.906-.898l1.816-.297zm72.662 2.86h-1.27v-.487c-.276.201-.864.609-1.881.609-1.202 0-2.274-.794-2.137-2.078.118-1.106 1.153-1.584 1.848-1.727l2.17-.345c0-.539-.29-.956-1.064-1.006s-1.21.305-1.571 1.017l-1.124-.605c1.218-2.631 5.029-1.764 5.029.414v4.207zm-1.27-2.86c.006.396-.062 1.112-.82 1.59-.587.37-1.841.299-1.903-.395-.049-.555.461-.791.906-.898l1.816-.297zM99.096 10.149H97.85v-8.45h1.246v4.895l2.68-2.559h1.738l-2.633 2.535 2.715 3.578h-1.556l-2.077-2.707-.867.844v1.863zm6.053-6.114h-1.255v6.113h1.255V4.035zm-59.2 0h-1.255v6.113h1.255V4.035zm5.584 6.113V1.697h1.255v2.695c.361-.346 1-.485 1.47-.485 1.452 0 2.477 1.082 2.457 2.448v3.792h-1.27v-3.68c0-.408-.214-1.339-1.315-1.339-.968 0-1.342.756-1.342 1.339v3.681h-1.255zm-4.76-4.894V4.039h.621a.45.45 0 0 0 .45-.45v-.855h1.251v1.305h1.309v1.215h-1.309v3.109c0 .293.105.664.648.664.365 0 .531-.035.736-.07v1.137s-.361.113-.857.113c-1.398 0-1.777-1.051-1.777-1.788V5.254h-1.071zM36.528 4.039h-1.394l2.191 6.106h1.125l1.234-3.918 1.238 3.918h1.129l2.188-6.106h-1.383l-1.359 3.93-1.256-3.93h-1.124l-1.242 3.957-1.348-3.957zM26.212 7.141c-.02 1.566 1.187 3.129 3.223 3.129 1.566 0 2.383-.918 2.734-1.719L31.172 8c-.315.399-.801 1.094-1.738 1.094-1.145 0-1.825-.781-1.891-1.52h4.625c.074-.284.148-.995-.03-1.559-.336-1.064-1.221-2.102-2.839-2.102s-3.088 1.152-3.088 3.227zm1.363-.75h3.348c-.055-.43-.566-1.301-1.623-1.301a1.79 1.79 0 0 0-1.725 1.301zm-8.758.75c.038 1.758 1.277 3.133 3.145 3.133 1.074 0 1.723-.477 1.961-.672v.547h1.242V1.703h-1.258v2.888c-.414-.36-1.062-.68-1.93-.68-1.91 0-3.198 1.473-3.16 3.23zm1.309-.08c0 1.119.723 1.978 1.836 1.978a1.88 1.88 0 0 0 1.94-1.904c0-1.371-1.011-1.99-1.972-1.99s-1.805.798-1.805 1.916zm76.683-.028C96.771 5.275 95.532 3.9 93.664 3.9c-1.074 0-1.723.477-1.961.672v-.547h-1.242v8.22h1.258V9.583c.414.36 1.063.68 1.93.68 1.91 0 3.198-1.473 3.16-3.23zm-1.309.08c0-1.119-.723-1.978-1.836-1.978a1.88 1.88 0 0 0-1.94 1.904c0 1.371 1.011 1.99 1.972 1.99S95.5 8.231 95.5 7.113zM106.441 10.173V4.036h1.254v.382c.361-.346 1-.485 1.47-.485 1.452 0 2.477 1.082 2.457 2.448v3.792h-1.27V6.492c0-.408-.214-1.339-1.315-1.339-.969 0-1.342.756-1.342 1.339v3.681h-1.254zm-30.383-.021V1.824h1.084l4.215 5.777V1.824h1.32v8.328h-1.094l-4.207-5.796v5.796h-1.319zM5.24 10.149H4V2.377h1.014l2.664 3.597 2.654-3.592h1.03v7.766h-1.256V4.762L7.678 8.068 5.24 4.742v5.407z" transform="translate(20.0, 698.0)" fill="#80808088" stroke="none"></path>
</svg>