<?xml version="1.0" encoding="utf-8" standalone="yes"?>
<!DOCTYPE svg PUBLIC "-//W3C//DTD SVG 1.1//EN" "http://www.w3.org/Graphics/SVG/1.1/DTD/svg11.dtd">
<svg version="1.1" xmlns="http://www.w3.org/2000/svg" xmlns:xlink="http://www.w3.org/1999/xlink" width="522" height="457" viewBox="0 0 522 457" style="fill:none; stroke:none; fill-rule:evenodd; clip-rule:evenodd; stroke-linecap:round; stroke-linejoin:round; stroke-miterlimit:1.5;">
<style class="text-font-style fontImports" data-font-family="Roboto">
@import url(https://fonts.googleapis.com/css2?family=Roboto:wght@400;700&amp;display=block);
</style>
<style class="text-font-style">
@import url(https://app.napkin.ai/fonts/font-face.web.napkin-fallback.css);
@import url(https://app.napkin.ai/fonts/font-face.web.shantell-sans.css);
@import url(https://app.napkin.ai/fonts/font-face.web.roboto.css);
</style>
<rect id="" x="0" y="0" width="521.828" height="457" style="fill:#ffffff;"></rect>
<g id="items" style="isolation:isolate;">
<g id="blend" style="mix-blend-mode:normal;">
<g id="g-root-tf_1ltnlvoq5ik99-fill" data-item-order="-357713">
<g id="tf_1ltnlvoq5ik99-fill-merged" stroke="none" fill="#ffffff" fill-opacity="1.0">
<g>
<path d="M0 0 H521.83 V457 H0 V0"></path>
</g>
</g>
</g>
<g id="g-root-tf_1ltnlvoq5ik99-stroke" data-item-order="-357713"></g>
<g id="g-root-sy_0_line_zlxm6cq5il1m-fill" data-item-order="-46643" transform="translate(98.0, 392.0)"></g>
<g id="g-root-sy_0_line_zlxm6cq5il1m-stroke" data-item-order="-46643" transform="translate(98.0, 392.0)">
<g id="sy_0_line_zlxm6cq5il1m-stroke" fill="none" stroke-linecap="round" stroke-linejoin="round" stroke-miterlimit="4" stroke="#484848" stroke-width="2" stroke-opacity="1.0">
<g>
<path d="M 10 10L 224 10"></path>
<path d="M 218 16.5L 224.5 10L 218 3.5" stroke-dasharray="none"></path>
</g>
</g>
</g>
<g id="g-root-sy_0_line_1_v6441wq5il8r-fill" data-item-order="-46639" transform="translate(98.0, 176.0)"></g>
<g id="g-root-sy_0_line_1_v6441wq5il8r-stroke" data-item-order="-46639" transform="translate(98.0, 176.0)">
<g id="sy_0_line_1_v6441wq5il8r-stroke" fill="none" stroke-linecap="round" stroke-linejoin="round" stroke-miterlimit="4" stroke="#484848" stroke-width="2" stroke-opacity="1.0">
<g>
<path d="M 10 226L 10 12"></path>
<path d="M 16.5 18L 10 11.5L 3.5 18" stroke-dasharray="none"></path>
</g>
</g>
</g>
<g id="g-root-sy_1_cu_Vector_v6441wq5ilfq-fill" data-item-order="-46636" transform="translate(122.0, 230.0)">
<defs>
<linearGradient id="gradient-ffeb37-9997561" x2="0" y2="1">
<stop offset="0" stop-color="#ffef63"></stop>
<stop offset="1" stop-color="#ffe60a"></stop>
</linearGradient>
</defs>
<g id="sy_1_cu_Vector_v6441wq5ilfq-fill-merged" stroke="none" fill="url(#gradient-ffeb37-9997561)" fill-opacity="1.0">
<g>
<path d="M168.944 90.583L180.635 115.333L153.355 117.583L158.503 108.666L10 20.392L16 10L164.503 98.274L168.944 90.583"></path>
</g>
</g>
</g>
<g id="g-root-sy_1_cu_Vector_v6441wq5ilfq-stroke" data-item-order="-46636" transform="translate(122.0, 230.0)">
<g id="sy_1_cu_Vector_v6441wq5ilfq-stroke" fill="none" stroke-linecap="round" stroke-linejoin="round" stroke-miterlimit="4" stroke="#484848" stroke-width="2" stroke-opacity="1.0">
<g>
<path d="M 168.9438 90.5827L 180.6352 115.3327L 153.3554 117.5827L 158.5031 108.6665L 10 20.3923L 16 10L 164.5032 98.2742L 168.9438 90.5827Z"></path>
</g>
</g>
</g>
<g id="g-root-tx_aibaseda_deu3k4q5ilms-fill" data-item-order="0" transform="translate(20.171875, 38.0)">
<g id="tx_aibaseda_deu3k4q5ilms-fill-merged" stroke="none" fill="#484848" fill-opacity="1.0">
<g>
<text transform="translate(241.828125, 10.0)" style="font-size:25px; font-family:'Roboto', napkin-fallback, sans-serif; font-weight:bold; white-space:pre;">
<tspan x="-229.83" y="30" dominant-baseline="ideographic">AI-based answering services are cheaper</tspan>
</text>
</g>
</g>
</g>
<g id="g-root-tx_aibaseda_deu3k4q5ilms-stroke" data-item-order="0" transform="translate(20.171875, 38.0)"></g>
<g id="g-root-tx_month_3dl6sq5im13-fill" data-item-order="0" transform="translate(326.0, 385.0)">
<g id="tx_month_3dl6sq5im13-fill-merged" stroke="none" fill="#484848" fill-opacity="1.0">
<g>
<text transform="translate(10.0, 10.0)" style="font-size:12px; font-family:'Roboto', napkin-fallback, sans-serif; white-space:pre;">
<tspan x="2" y="14" dominant-baseline="ideographic">Month</tspan>
</text>
</g>
</g>
</g>
<g id="g-root-tx_month_3dl6sq5im13-stroke" data-item-order="0" transform="translate(326.0, 385.0)"></g>
<g id="g-root-tx_cost_qqalxgq5im86-fill" data-item-order="0" transform="translate(14.0, 116.0)">
<g id="tx_cost_qqalxgq5im86-fill-merged" stroke="none" fill="#484848" fill-opacity="1.0">
<g>
<text transform="translate(10.0, 10.0)" style="font-size:12px; font-family:'Roboto', napkin-fallback, sans-serif; white-space:pre;">
<tspan x="2" y="14" dominant-baseline="ideographic">Cost</tspan>
</text>
</g>
</g>
</g>
<g id="g-root-tx_cost_qqalxgq5im86-stroke" data-item-order="0" transform="translate(14.0, 116.0)"></g>
</g>
</g>
<path id="w924yv8q5o6bl" d="M65.283 12.757a.35.35 0 0 0 .584.157l5.203-5.141-6.183 3.523.396 1.461zm-2.216-11.7a.35.35 0 0 0-.522.305v3.111l3.276-1.868-2.754-1.548zm3.728 2.105l-4.25 2.421v2.445l6.391-3.644-2.141-1.222zm4.708 3.303a.35.35 0 0 0 0-.609l-1.592-.9-7.365 4.199v1.782a.35.35 0 0 0 .523.305l8.435-4.777z M44.542 2.513c0-.433.355-.783.792-.783s.792.35.792.783-.355.783-.792.783-.792-.35-.792-.783zm59.171 0c0-.433.355-.783.792-.783s.792.35.792.783-.355.783-.792.783-.792-.35-.792-.783zm-85.951 7.636h-1.27v-.487c-.276.201-.864.609-1.881.609-1.202 0-2.274-.794-2.137-2.078.118-1.106 1.153-1.584 1.848-1.727l2.17-.345c0-.539-.29-.956-1.064-1.006s-1.21.305-1.571 1.017l-1.124-.605c1.218-2.631 5.029-1.764 5.029.414v4.207zm-1.27-2.86c.006.396-.062 1.112-.819 1.59-.587.37-1.841.299-1.903-.395-.049-.555.461-.791.906-.898l1.816-.297zm72.662 2.86h-1.27v-.487c-.276.201-.864.609-1.881.609-1.202 0-2.274-.794-2.137-2.078.118-1.106 1.153-1.584 1.848-1.727l2.17-.345c0-.539-.29-.956-1.064-1.006s-1.21.305-1.571 1.017l-1.124-.605c1.218-2.631 5.029-1.764 5.029.414v4.207zm-1.27-2.86c.006.396-.062 1.112-.82 1.59-.587.37-1.841.299-1.903-.395-.049-.555.461-.791.906-.898l1.816-.297zM99.096 10.149H97.85v-8.45h1.246v4.895l2.68-2.559h1.738l-2.633 2.535 2.715 3.578h-1.556l-2.077-2.707-.867.844v1.863zm6.053-6.114h-1.255v6.113h1.255V4.035zm-59.2 0h-1.255v6.113h1.255V4.035zm5.584 6.113V1.697h1.255v2.695c.361-.346 1-.485 1.47-.485 1.452 0 2.477 1.082 2.457 2.448v3.792h-1.27v-3.68c0-.408-.214-1.339-1.315-1.339-.968 0-1.342.756-1.342 1.339v3.681h-1.255zm-4.76-4.894V4.039h.621a.45.45 0 0 0 .45-.45v-.855h1.251v1.305h1.309v1.215h-1.309v3.109c0 .293.105.664.648.664.365 0 .531-.035.736-.07v1.137s-.361.113-.857.113c-1.398 0-1.777-1.051-1.777-1.788V5.254h-1.071zM36.528 4.039h-1.394l2.191 6.106h1.125l1.234-3.918 1.238 3.918h1.129l2.188-6.106h-1.383l-1.359 3.93-1.256-3.93h-1.124l-1.242 3.957-1.348-3.957zM26.212 7.141c-.02 1.566 1.187 3.129 3.223 3.129 1.566 0 2.383-.918 2.734-1.719L31.172 8c-.315.399-.801 1.094-1.738 1.094-1.145 0-1.825-.781-1.891-1.52h4.625c.074-.284.148-.995-.03-1.559-.336-1.064-1.221-2.102-2.839-2.102s-3.088 1.152-3.088 3.227zm1.363-.75h3.348c-.055-.43-.566-1.301-1.623-1.301a1.79 1.79 0 0 0-1.725 1.301zm-8.758.75c.038 1.758 1.277 3.133 3.145 3.133 1.074 0 1.723-.477 1.961-.672v.547h1.242V1.703h-1.258v2.888c-.414-.36-1.062-.68-1.93-.68-1.91 0-3.198 1.473-3.16 3.23zm1.309-.08c0 1.119.723 1.978 1.836 1.978a1.88 1.88 0 0 0 1.94-1.904c0-1.371-1.011-1.99-1.972-1.99s-1.805.798-1.805 1.916zm76.683-.028C96.771 5.275 95.532 3.9 93.664 3.9c-1.074 0-1.723.477-1.961.672v-.547h-1.242v8.22h1.258V9.583c.414.36 1.063.68 1.93.68 1.91 0 3.198-1.473 3.16-3.23zm-1.309.08c0-1.119-.723-1.978-1.836-1.978a1.88 1.88 0 0 0-1.94 1.904c0 1.371 1.011 1.99 1.972 1.99S95.5 8.231 95.5 7.113zM106.441 10.173V4.036h1.254v.382c.361-.346 1-.485 1.47-.485 1.452 0 2.477 1.082 2.457 2.448v3.792h-1.27V6.492c0-.408-.214-1.339-1.315-1.339-.969 0-1.342.756-1.342 1.339v3.681h-1.254zm-30.383-.021V1.824h1.084l4.215 5.777V1.824h1.32v8.328h-1.094l-4.207-5.796v5.796h-1.319zM5.24 10.149H4V2.377h1.014l2.664 3.597 2.654-3.592h1.03v7.766h-1.256V4.762L7.678 8.068 5.24 4.742v5.407z" transform="translate(20.0, 423.0)" fill="#80808088" stroke="none"></path>
</svg>