<?xml version="1.0" encoding="utf-8" standalone="yes"?>
<!DOCTYPE svg PUBLIC "-//W3C//DTD SVG 1.1//EN" "http://www.w3.org/Graphics/SVG/1.1/DTD/svg11.dtd">
<svg version="1.1" xmlns="http://www.w3.org/2000/svg" xmlns:xlink="http://www.w3.org/1999/xlink" width="553" height="560" viewBox="0 0 553 560" style="fill:none; stroke:none; fill-rule:evenodd; clip-rule:evenodd; stroke-linecap:round; stroke-linejoin:round; stroke-miterlimit:1.5;">
<style class="text-font-style fontImports" data-font-family="Roboto">
@import url(https://fonts.googleapis.com/css2?family=Roboto:wght@400;700&amp;display=block);
</style>
<style class="text-font-style">
@import url(https://app.napkin.ai/fonts/font-face.web.napkin-fallback.css);
@import url(https://app.napkin.ai/fonts/font-face.web.shantell-sans.css);
@import url(https://app.napkin.ai/fonts/font-face.web.roboto.css);
</style>
<rect id="" x="0" y="0" width="552.594" height="559.332" style="fill:#ffffff;"></rect>
<g id="items" style="isolation:isolate;">
<g id="blend" style="mix-blend-mode:normal;">
<g id="g-root-tf_zrki2splqeiw-fill" data-item-order="-463625">
<g id="tf_zrki2splqeiw-fill-merged" stroke="none" fill="#ffffff" fill-opacity="1.0">
<g>
<path d="M0 0 H552.59 V559.33 H0 V0"></path>
</g>
</g>
</g>
<g id="g-root-tf_zrki2splqeiw-stroke" data-item-order="-463625"></g>
<g id="g-root-cp_1_g-1_v49ax0plnmz0-fill" data-item-order="-301454" transform="translate(115.01463317871094, 157.7320098876953)">
<g id="cp_1_g-1_v49ax0plnmz0-fill-merged" stroke="none" fill="url(#gradient-64edab-300750244)" fill-opacity="1.0">
<g>
<path d="M168.011 85.538L198.833 55.108L161.876 25.571L142.395 10L143.294 27.158C67.899 38.152 10 103.073 10 181.518C10 182.777 10.015 184.034 10.045 185.286L39.177 148.836L70.011 180.067C70.687 134.389 103.265 96.441 146.457 87.508L147.419 105.868L168.011 85.538"></path>
</g>
</g>
</g>
<g id="g-root-cp_1_g-1_v49ax0plnmz0-stroke" data-item-order="-301454" transform="translate(115.01463317871094, 157.7320098876953)">
<g id="cp_1_g-1_v49ax0plnmz0-stroke" fill="none" stroke-linecap="round" stroke-linejoin="round" stroke-miterlimit="4" stroke="#484848" stroke-width="2" stroke-opacity="1.0">
<g>
<path d="M 168.0108 85.5381L 198.8327 55.1081L 161.8765 25.5709L 142.3945 10L 143.2937 27.158C 67.8992 38.1522 10 103.0733 10 181.5175C 10 182.7773 10.0149 184.0337 10.0446 185.2864L 39.1773 148.8363L 70.0107 180.0667C 70.6874 134.3895 103.2653 96.4408 146.4566 87.5082L 147.4188 105.8684L 168.0108 85.5381Z"></path>
</g>
</g>
</g>
<g id="g-root-cp_2_g-2_qofsskplnnd7-fill" data-item-order="-301450" transform="translate(247.40863037109375, 157.73199462890625)">
<g id="cp_2_g-2_qofsskplnnd7-fill-merged" stroke="none" fill="url(#gradient-bceb57-510249182)" fill-opacity="1.0">
<g>
<path d="M33.605 25.518C112.194 25.518 177.21 83.631 188.025 159.228L205.274 158.324L160.166 214.763L109.406 163.349L127.7 162.39C118.962 119.169 81.189 86.474 35.616 85.538L66.439 55.108L29.482 25.571C30.852 25.536 32.227 25.518 33.605 25.518"></path>
</g>
</g>
</g>
<g id="g-root-cp_2_g-2_qofsskplnnd7-stroke" data-item-order="-301450" transform="translate(247.40863037109375, 157.73199462890625)">
<g id="cp_2_g-2_qofsskplnnd7-stroke" fill="none" stroke-linecap="round" stroke-linejoin="round" stroke-miterlimit="4" stroke="#484848" stroke-width="2" stroke-opacity="1.0">
<g>
<path d="M 66.4381 55.1081L 35.6163 85.5381C 81.1896 86.4746 118.9611 119.1688 127.6998 162.3897L 109.4061 163.3484L 129.5793 183.7813L 160.1665 214.7623L 189.5661 177.9782L 205.2746 158.3242L 188.0251 159.2282C 177.2099 83.6303 112.1942 25.5175 33.6055 25.5175C 32.2267 25.5175 30.8521 25.5354 29.482 25.5709L 66.4381 55.1081ZM 10 10L 29.482 25.5709"></path>
</g>
</g>
</g>
<g id="g-root-cp_3_g-3_1hbzamcplnkej-fill" data-item-order="-301444" transform="translate(237.921630859375, 325.71099853515625)">
<g id="cp_3_g-3_1hbzamcplnkej-fill-merged" stroke="none" fill="url(#gradient-ffeb37-9997561)" fill-opacity="1.0">
<g>
<path d="M41.387 109.524L10 140.513L46.278 169.507L66.438 185.621L65.511 167.94C141.047 157.07 199.093 92.083 199.093 13.539C199.093 12.356 199.08 11.177 199.054 10L169.654 46.784L139.067 15.803C138.016 61.218 105.427 98.836 62.35 107.607L61.414 89.752L41.387 109.524"></path>
</g>
</g>
</g>
<g id="g-root-cp_3_g-3_1hbzamcplnkej-stroke" data-item-order="-301444" transform="translate(237.921630859375, 325.71099853515625)">
<g id="cp_3_g-3_1hbzamcplnkej-stroke" fill="none" stroke-linecap="round" stroke-linejoin="round" stroke-miterlimit="4" stroke="#484848" stroke-width="2" stroke-opacity="1.0">
<g>
<path d="M 41.3871 109.5244L 10 140.5126L 46.2776 169.5074L 66.4381 185.6207L 65.5115 167.9404C 141.0466 157.0698 199.0933 92.0833 199.0933 13.5393C 199.0933 12.3564 199.0802 11.1766 199.054 10L 169.6543 46.7841L 139.0672 15.8031C 138.0162 61.2179 105.4268 98.8363 62.3496 107.6075L 61.4139 89.7522L 41.3871 109.5244Z"></path>
</g>
</g>
</g>
<g id="g-root-cp_4_g-4_ddlricplnksl-fill" data-item-order="-301440" transform="translate(99.08462524414062, 296.5679931640625)">
<defs>
<linearGradient id="gradient-64edab-300750244" x2="0" y2="1">
<stop offset="0" stop-color="#83fac1"></stop>
<stop offset="1" stop-color="#44e095"></stop>
</linearGradient>
<linearGradient id="gradient-bceb57-510249182" x2="0" y2="1">
<stop offset="0" stop-color="#cff976"></stop>
<stop offset="1" stop-color="#a8dd38"></stop>
</linearGradient>
<linearGradient id="gradient-ffeb37-9997561" x2="0" y2="1">
<stop offset="0" stop-color="#ffef63"></stop>
<stop offset="1" stop-color="#ffe60a"></stop>
</linearGradient>
<linearGradient id="gradient-fcaa5f-284141256" x2="0" y2="1">
<stop offset="0" stop-color="#ffbf84"></stop>
<stop offset="1" stop-color="#f99539"></stop>
</linearGradient>
</defs>
<g id="cp_4_g-4_ddlricplnksl-fill-merged" stroke="none" fill="url(#gradient-fcaa5f-284141256)" fill-opacity="1.0">
<g>
<path d="M85.941 41.23L55.108 10L25.975 46.45L10 66.438L27.59 65.516C38.639 140.848 103.531 198.681 181.931 198.681C182.995 198.681 184.056 198.671 185.115 198.649L148.837 169.654L180.225 138.666C134.707 137.873 96.913 105.4 87.948 62.353L105.868 61.414L85.941 41.23"></path>
</g>
</g>
</g>
<g id="g-root-cp_4_g-4_ddlricplnksl-stroke" data-item-order="-301440" transform="translate(99.08462524414062, 296.5679931640625)">
<g id="cp_4_g-4_ddlricplnksl-stroke" fill="none" stroke-linecap="round" stroke-linejoin="round" stroke-miterlimit="4" stroke="#484848" stroke-width="2" stroke-opacity="1.0">
<g>
<path d="M 85.9415 41.2304L 55.1081 10L 25.9754 46.4501L 10 66.4381L 27.5901 65.5163C 38.6395 140.8479 103.5313 198.6812 181.9308 198.6812C 182.9947 198.6812 184.0562 198.6705 185.1151 198.6493L 148.8374 169.6545L 180.2245 138.6663C 134.7067 137.873 96.9126 105.4 87.9481 62.353L 105.8684 61.4139L 85.9415 41.2304Z"></path>
</g>
</g>
</g>
<g id="g-root-tx_afterhou_zkpa4kplnle7-fill" data-item-order="0" transform="translate(132.0703125, 38.0)">
<g id="tx_afterhou_zkpa4kplnle7-fill-merged" stroke="none" fill="#484848" fill-opacity="1.0">
<g>
<text transform="translate(146.9453125, 10.0)" style="font-size:20px; font-family:'Roboto', napkin-fallback, sans-serif; font-weight:bold; white-space:pre;">
<tspan x="-134.95" y="24" dominant-baseline="ideographic">After-Hours Call System Cycle</tspan>
</text>
</g>
</g>
</g>
<g id="g-root-tx_afterhou_zkpa4kplnle7-stroke" data-item-order="0" transform="translate(132.0703125, 38.0)"></g>
<g id="g-root-ic_1_1urt4lgplnn65-fill" data-item-order="0" transform="translate(352.015625, 233.25)"></g>
<g id="g-root-ic_1_1urt4lgplnn65-stroke" data-item-order="0" transform="translate(352.015625, 233.25)">
<g id="ic_1_1urt4lgplnn65-stroke" fill="none" stroke-linecap="round" stroke-linejoin="round" stroke-miterlimit="4" stroke="#484848" stroke-width="2" stroke-opacity="1.0">
<g>
<path d="M 17.5 45.25L 16 45.25M 22 45.25L 20.5 45.25M 26.5 45.25L 25 45.25M 31 45.25L 29.5 45.25M 35.5 45.25L 34 45.25M 40 45.25L 38.5 45.25M 35.5 25.75C 35.5 29.892136 32.142136 33.25 28 33.25C 23.857864 33.25 20.5 29.892136 20.5 25.75L 20.5 18.25C 20.5 14.107864 23.857864 10.75 28 10.75C 32.142136 10.75 35.5 14.107864 35.5 18.25ZM 28 36.25L 28 41.5M 29.5 10.9L 29.5 15.25M 26.5 10.9L 26.5 15.25M 17.936501 28.75L 38.064999 28.75M 20.5 19.75L 25 19.75M 20.5 22.75L 25 22.75M 31 19.75L 35.5 19.75M 31 22.75L 35.5 22.75M 17.5 23.5L 17.5 25.75C 17.5 31.54899 22.201012 36.25 28.000002 36.25C 33.798988 36.25 38.5 31.54899 38.5 25.75L 38.5 23.5"></path>
</g>
</g>
</g>
<g id="g-root-ic_robo_v49ax0plqgb1-fill" data-item-order="0" transform="translate(337.015625, 407.25)"></g>
<g id="g-root-ic_robo_v49ax0plqgb1-stroke" data-item-order="0" transform="translate(337.015625, 407.25)">
<g id="ic_robo_v49ax0plqgb1-stroke" fill="none" stroke-linecap="round" stroke-linejoin="round" stroke-miterlimit="4" stroke="#484848" stroke-width="2" stroke-opacity="1.0">
<g>
<path d="M 41.432949 29.7316L 41.432949 43.128849C 41.432949 43.957302 40.761402 44.628849 39.932949 44.628849L 12.72022 44.628849C 11.891785 44.628849 11.220216 43.957302 11.220216 43.128849L 11.220216 24.30859C 11.220216 23.480171 11.891785 22.80859 12.72022 22.80859L 27.182051 22.80859M 10 10M 11.68897 23.3125L 24.109766 34.266251C 24.723024 34.807301 25.512699 35.105652 26.330349 35.105652C 27.148151 35.105652 27.93775 34.807301 28.5511 34.266251L 34.761402 28.789452M 35.2015 15.238L 41.780502 15.238C 41.780502 15.238 44.780502 15.238 44.780502 18.238001L 44.780502 22.024C 44.780502 22.024 44.780502 25.024 41.780502 25.024L 35.2015 25.024C 35.2015 25.024 32.2015 25.024 32.2015 22.024L 32.2015 18.238001C 32.2015 18.238001 32.2015 15.238 35.2015 15.238M 10 10M 38.49115 11.378519L 38.49115 15.238285M 10 10M 36.42865 19.261209L 36.42865 21.00391M 10 10M 40.55365 19.261209L 40.55365 21.00391"></path>
</g>
</g>
</g>
<g id="g-root-ic_2_hx645gplqfik-fill" data-item-order="0" transform="translate(154.015625, 389.25)"></g>
<g id="g-root-ic_2_hx645gplqfik-stroke" data-item-order="0" transform="translate(154.015625, 389.25)">
<g id="ic_2_hx645gplqfik-stroke" fill="none" stroke-linecap="round" stroke-linejoin="round" stroke-miterlimit="4" stroke="#484848" stroke-width="2" stroke-opacity="1.0">
<g>
<path d="M 28.374849 34.224998C 34.75375 34.224998 39.92485 29.0539 39.92485 22.674999C 39.92485 16.296101 34.75375 11.125 28.374849 11.125C 21.995995 11.125 16.824896 16.296101 16.824896 22.674999C 16.824896 29.0539 21.995995 34.224998 28.374849 34.224998ZM 10 10M 44.874851 39.175301L 36.47485 30.925301M 14.125 15.625C 12.475 15.625 11.125 16.975 11.125 18.625L 11.125 41.875C 11.125 43.525002 12.475 44.875 14.125 44.875L 29.125 44.875C 30.775002 44.875 32.125 43.525002 32.125 41.875L 32.125 38.125M 25.375 15.625L 29.125 15.625C 30.775002 15.625 32.125 16.975 32.125 18.625L 32.125 28.375M 21.324896 24.625L 26.57485 24.625M 22.074894 20.125L 26.57485 20.125M 25.07485 29.125L 26.57485 29.125"></path>
</g>
</g>
</g>
<g id="g-root-ic_call_18kplz8plqfb6-fill" data-item-order="0" transform="translate(169.015625, 215.25)"></g>
<g id="g-root-ic_call_18kplz8plqfb6-stroke" data-item-order="0" transform="translate(169.015625, 215.25)">
<g id="ic_call_18kplz8plqfb6-stroke" fill="none" stroke-linecap="round" stroke-linejoin="round" stroke-miterlimit="4" stroke="#484848" stroke-width="2" stroke-opacity="1.0">
<g>
<path d="M 21.2575 22.771C 22.429646 21.599329 22.429646 19.699171 21.2575 18.5275L 18.076 15.3445C 16.904329 14.172354 15.004171 14.172354 13.8325 15.3445L 12.088 17.0905C 10.579586 18.60326 10.342667 20.968067 11.521 22.75C 16.657928 30.483423 23.287579 37.113075 31.021002 42.250004C 32.802933 43.428337 35.16774 43.191414 36.6805 41.682999L 38.426498 39.937C 39.597645 38.765499 39.597645 36.866501 38.426498 35.695L 35.244999 32.516499C 34.073326 31.344355 32.173172 31.344355 31.001501 32.516499L 29.942501 33.577C 26.384857 30.649937 23.119564 27.384644 20.192501 23.827ZM 27.271 21.25L 27.271 13L 35.521 13M 27.271 13L 36.229 22L 45.229 13"></path>
</g>
</g>
</g>
<g id="g-root-tx_receivec_4o7i4kplqdj6-fill" data-item-order="0" transform="translate(52.5, 179.25)">
<g id="tx_receivec_4o7i4kplqdj6-fill-merged" stroke="none" fill="#3cc583" fill-opacity="1.0">
<g>
<text transform="translate(74.515625, 10.0)" style="font-size:12px; font-family:'Roboto', napkin-fallback, sans-serif; white-space:pre;">
<tspan x="-62.52" y="14" dominant-baseline="ideographic">Receive Call</tspan>
</text>
</g>
</g>
</g>
<g id="g-root-tx_receivec_4o7i4kplqdj6-stroke" data-item-order="0" transform="translate(52.5, 179.25)"></g>
<g id="g-root-tx_systemau_4o7i4kplqdqj-fill" data-item-order="0" transform="translate(14.0, 193.25)">
<g id="tx_systemau_4o7i4kplqdqj-fill-merged" stroke="none" fill="#484848" fill-opacity="1.0">
<g>
<text transform="translate(113.015625, 22.0)" style="font-size:10.5px; font-family:'Roboto', napkin-fallback, sans-serif; white-space:pre;">
<tspan x="-101.02" y="0" dominant-baseline="ideographic">System automatically </tspan>
<tspan x="-85.81" y="12" dominant-baseline="ideographic">answers incoming </tspan>
<tspan x="-22.5" y="24" dominant-baseline="ideographic">calls.</tspan>
</text>
</g>
</g>
</g>
<g id="g-root-tx_systemau_4o7i4kplqdqj-stroke" data-item-order="0" transform="translate(14.0, 193.25)"></g>
<g id="g-root-tx_recordme_mfhimcplqdxf-fill" data-item-order="0" transform="translate(421.015625, 185.25)">
<g id="tx_recordme_mfhimcplqdxf-fill-merged" stroke="none" fill="#92bd39" fill-opacity="1.0">
<g>
<text transform="translate(10.0, 10.0)" style="font-size:12px; font-family:'Roboto', napkin-fallback, sans-serif; white-space:pre;">
<tspan x="2" y="14" dominant-baseline="ideographic">Record Message</tspan>
</text>
</g>
</g>
</g>
<g id="g-root-tx_recordme_mfhimcplqdxf-stroke" data-item-order="0" transform="translate(421.015625, 185.25)"></g>
<g id="g-root-tx_systemre_4o7i4kplqe4m-fill" data-item-order="0" transform="translate(421.015625, 199.25)">
<g id="tx_systemre_4o7i4kplqe4m-fill-merged" stroke="none" fill="#484848" fill-opacity="1.0">
<g>
<text transform="translate(10.0, 16.0)" style="font-size:10.5px; font-family:'Roboto', napkin-fallback, sans-serif; white-space:pre;">
<tspan x="2" y="6" dominant-baseline="ideographic">System records </tspan>
<tspan x="2" y="18" dominant-baseline="ideographic">caller&#39;s message.</tspan>
</text>
</g>
</g>
</g>
<g id="g-root-tx_systemre_4o7i4kplqe4m-stroke" data-item-order="0" transform="translate(421.015625, 199.25)"></g>
<g id="g-root-tx_reviewme_4o7i4kplqebt-fill" data-item-order="0" transform="translate(27.4375, 431.25)">
<g id="tx_reviewme_4o7i4kplqebt-fill-merged" stroke="none" fill="#de8431" fill-opacity="1.0">
<g>
<text transform="translate(99.578125, 10.0)" style="font-size:12px; font-family:'Roboto', napkin-fallback, sans-serif; white-space:pre;">
<tspan x="-87.58" y="14" dominant-baseline="ideographic">Review Message</tspan>
</text>
</g>
</g>
</g>
<g id="g-root-tx_reviewme_4o7i4kplqebt-stroke" data-item-order="0" transform="translate(27.4375, 431.25)"></g>
<g id="g-root-tx_staffrev_1ly1jlwplqebs-fill" data-item-order="0" transform="translate(23.65625, 445.25)">
<g id="tx_staffrev_1ly1jlwplqebs-fill-merged" stroke="none" fill="#484848" fill-opacity="1.0">
<g>
<text transform="translate(103.359375, 22.0)" style="font-size:10.5px; font-family:'Roboto', napkin-fallback, sans-serif; white-space:pre;">
<tspan x="-61.33" y="0" dominant-baseline="ideographic">Staff reviews </tspan>
<tspan x="-91.36" y="12" dominant-baseline="ideographic">message and takes </tspan>
<tspan x="-29.75" y="24" dominant-baseline="ideographic">action.</tspan>
</text>
</g>
</g>
</g>
<g id="g-root-tx_staffrev_1ly1jlwplqebs-stroke" data-item-order="0" transform="translate(23.65625, 445.25)"></g>
<g id="g-root-tx_sendnoti_vb4iv8plqeq7-fill" data-item-order="0" transform="translate(421.015625, 437.25)">
<g id="tx_sendnoti_vb4iv8plqeq7-fill-merged" stroke="none" fill="#e0cb15" fill-opacity="1.0">
<g>
<text transform="translate(10.0, 10.0)" style="font-size:12px; font-family:'Roboto', napkin-fallback, sans-serif; white-space:pre;">
<tspan x="2" y="14" dominant-baseline="ideographic">Send Notification</tspan>
</text>
</g>
</g>
</g>
<g id="g-root-tx_sendnoti_vb4iv8plqeq7-stroke" data-item-order="0" transform="translate(421.015625, 437.25)"></g>
<g id="g-root-tx_systemse_mfhimcplqex2-fill" data-item-order="0" transform="translate(421.015625, 451.25)">
<g id="tx_systemse_mfhimcplqex2-fill-merged" stroke="none" fill="#484848" fill-opacity="1.0">
<g>
<text transform="translate(10.0, 16.0)" style="font-size:10.5px; font-family:'Roboto', napkin-fallback, sans-serif; white-space:pre;">
<tspan x="2" y="6" dominant-baseline="ideographic">System sends </tspan>
<tspan x="2" y="18" dominant-baseline="ideographic">notification to staff.</tspan>
</text>
</g>
</g>
</g>
<g id="g-root-tx_systemse_mfhimcplqex2-stroke" data-item-order="0" transform="translate(421.015625, 451.25)"></g>
</g>
</g>
<path id="wmgqgskplw1z4" d="M65.283 12.757a.35.35 0 0 0 .584.157l5.203-5.141-6.183 3.523.396 1.461zm-2.216-11.7a.35.35 0 0 0-.522.305v3.111l3.276-1.868-2.754-1.548zm3.728 2.105l-4.25 2.421v2.445l6.391-3.644-2.141-1.222zm4.708 3.303a.35.35 0 0 0 0-.609l-1.592-.9-7.365 4.199v1.782a.35.35 0 0 0 .523.305l8.435-4.777z M44.542 2.513c0-.433.355-.783.792-.783s.792.35.792.783-.355.783-.792.783-.792-.35-.792-.783zm59.171 0c0-.433.355-.783.792-.783s.792.35.792.783-.355.783-.792.783-.792-.35-.792-.783zm-85.951 7.636h-1.27v-.487c-.276.201-.864.609-1.881.609-1.202 0-2.274-.794-2.137-2.078.118-1.106 1.153-1.584 1.848-1.727l2.17-.345c0-.539-.29-.956-1.064-1.006s-1.21.305-1.571 1.017l-1.124-.605c1.218-2.631 5.029-1.764 5.029.414v4.207zm-1.27-2.86c.006.396-.062 1.112-.819 1.59-.587.37-1.841.299-1.903-.395-.049-.555.461-.791.906-.898l1.816-.297zm72.662 2.86h-1.27v-.487c-.276.201-.864.609-1.881.609-1.202 0-2.274-.794-2.137-2.078.118-1.106 1.153-1.584 1.848-1.727l2.17-.345c0-.539-.29-.956-1.064-1.006s-1.21.305-1.571 1.017l-1.124-.605c1.218-2.631 5.029-1.764 5.029.414v4.207zm-1.27-2.86c.006.396-.062 1.112-.82 1.59-.587.37-1.841.299-1.903-.395-.049-.555.461-.791.906-.898l1.816-.297zM99.096 10.149H97.85v-8.45h1.246v4.895l2.68-2.559h1.738l-2.633 2.535 2.715 3.578h-1.556l-2.077-2.707-.867.844v1.863zm6.053-6.114h-1.255v6.113h1.255V4.035zm-59.2 0h-1.255v6.113h1.255V4.035zm5.584 6.113V1.697h1.255v2.695c.361-.346 1-.485 1.47-.485 1.452 0 2.477 1.082 2.457 2.448v3.792h-1.27v-3.68c0-.408-.214-1.339-1.315-1.339-.968 0-1.342.756-1.342 1.339v3.681h-1.255zm-4.76-4.894V4.039h.621a.45.45 0 0 0 .45-.45v-.855h1.251v1.305h1.309v1.215h-1.309v3.109c0 .293.105.664.648.664.365 0 .531-.035.736-.07v1.137s-.361.113-.857.113c-1.398 0-1.777-1.051-1.777-1.788V5.254h-1.071zM36.528 4.039h-1.394l2.191 6.106h1.125l1.234-3.918 1.238 3.918h1.129l2.188-6.106h-1.383l-1.359 3.93-1.256-3.93h-1.124l-1.242 3.957-1.348-3.957zM26.212 7.141c-.02 1.566 1.187 3.129 3.223 3.129 1.566 0 2.383-.918 2.734-1.719L31.172 8c-.315.399-.801 1.094-1.738 1.094-1.145 0-1.825-.781-1.891-1.52h4.625c.074-.284.148-.995-.03-1.559-.336-1.064-1.221-2.102-2.839-2.102s-3.088 1.152-3.088 3.227zm1.363-.75h3.348c-.055-.43-.566-1.301-1.623-1.301a1.79 1.79 0 0 0-1.725 1.301zm-8.758.75c.038 1.758 1.277 3.133 3.145 3.133 1.074 0 1.723-.477 1.961-.672v.547h1.242V1.703h-1.258v2.888c-.414-.36-1.062-.68-1.93-.68-1.91 0-3.198 1.473-3.16 3.23zm1.309-.08c0 1.119.723 1.978 1.836 1.978a1.88 1.88 0 0 0 1.94-1.904c0-1.371-1.011-1.99-1.972-1.99s-1.805.798-1.805 1.916zm76.683-.028C96.771 5.275 95.532 3.9 93.664 3.9c-1.074 0-1.723.477-1.961.672v-.547h-1.242v8.22h1.258V9.583c.414.36 1.063.68 1.93.68 1.91 0 3.198-1.473 3.16-3.23zm-1.309.08c0-1.119-.723-1.978-1.836-1.978a1.88 1.88 0 0 0-1.94 1.904c0 1.371 1.011 1.99 1.972 1.99S95.5 8.231 95.5 7.113zM106.441 10.173V4.036h1.254v.382c.361-.346 1-.485 1.47-.485 1.452 0 2.477 1.082 2.457 2.448v3.792h-1.27V6.492c0-.408-.214-1.339-1.315-1.339-.969 0-1.342.756-1.342 1.339v3.681h-1.254zm-30.383-.021V1.824h1.084l4.215 5.777V1.824h1.32v8.328h-1.094l-4.207-5.796v5.796h-1.319zM5.24 10.149H4V2.377h1.014l2.664 3.597 2.654-3.592h1.03v7.766h-1.256V4.762L7.678 8.068 5.24 4.742v5.407z" transform="translate(419.59375, 528.3319702148438)" fill="#80808088" stroke="none"></path>
</svg>